<?xml version="1.0" standalone="no"?>
<!DOCTYPE svg PUBLIC "-//W3C//DTD SVG 20010904//EN"
 "http://www.w3.org/TR/2001/REC-SVG-20010904/DTD/svg10.dtd">
<svg version="1.0" xmlns="http://www.w3.org/2000/svg"
 width="600.000000pt" height="262.000000pt" viewBox="0 0 600.000000 262.000000"
 preserveAspectRatio="xMidYMid meet">

<g transform="translate(0.000000,262.000000) scale(0.100000,-0.100000)"
fill="#000000" stroke="none">
<path d="M3460 2201 c0 -5 5 -13 10 -16 6 -3 10 -2 10 4 0 5 -4 13 -10 16 -5
3 -10 2 -10 -4z"/>
<path d="M3030 2171 c0 -5 5 -13 10 -16 6 -3 10 -2 10 4 0 5 -4 13 -10 16 -5
3 -10 2 -10 -4z"/>
<path d="M3225 2160 c3 -5 8 -10 11 -10 2 0 4 5 4 10 0 6 -5 10 -11 10 -5 0
-7 -4 -4 -10z"/>
<path d="M2990 2117 c0 -15 5 -27 11 -27 5 0 7 -4 4 -10 -3 -5 -1 -10 5 -10 8
0 9 7 5 18 -4 9 -8 22 -9 29 -4 26 -16 25 -16 0z"/>
<path d="M3257 2126 c-6 -16 3 -37 14 -30 11 7 12 -56 0 -75 -6 -10 -13 -2
-27 28 -10 22 -21 41 -25 41 -4 0 -10 10 -14 23 -5 16 -8 18 -12 7 -3 -8 -13
-21 -22 -29 -14 -12 -14 -13 7 -8 14 3 22 1 22 -8 0 -19 -17 -28 -23 -13 -2 7
-7 10 -11 7 -3 -3 5 -26 17 -52 13 -25 20 -44 15 -41 -4 3 -8 -7 -8 -23 -1
-24 -2 -25 -11 -10 -12 20 -29 23 -29 3 0 -8 -7 -16 -15 -20 -8 -3 -15 -2 -15
2 0 5 -7 17 -15 28 -14 18 -14 16 -8 -16 3 -19 17 -50 31 -67 13 -18 19 -33
13 -33 -6 0 -11 -4 -11 -10 0 -5 8 -7 18 -4 13 5 14 4 3 -4 -8 -5 -12 -18 -9
-29 9 -33 -16 -44 -45 -20 -14 12 -35 30 -46 39 -12 10 -21 23 -21 29 0 8 6 7
17 -2 15 -12 16 -12 10 6 -6 17 -4 17 9 -2 19 -26 34 -30 34 -8 0 8 -6 15 -13
15 -19 0 -62 48 -82 93 -10 21 -20 36 -22 33 -3 -2 0 -13 6 -24 8 -15 7 -30
-5 -58 -14 -33 -14 -38 0 -53 9 -9 16 -11 16 -4 0 6 -5 13 -11 15 -5 2 -7 11
-4 20 10 26 31 1 33 -40 2 -29 0 -33 -15 -27 -42 16 -54 15 -48 -6 4 -11 0
-25 -9 -34 -18 -18 -32 -20 -19 -2 5 6 9 26 7 42 -1 17 -3 67 -3 113 -1 45 -5
82 -9 82 -4 0 -6 -16 -4 -36 3 -26 1 -35 -7 -30 -6 4 -11 13 -11 20 0 7 -7 21
-16 32 -14 18 -15 18 -8 -6 3 -14 13 -32 20 -41 18 -20 14 -70 -6 -86 -13 -11
-13 -14 0 -22 9 -7 17 -6 21 0 3 6 5 -7 3 -28 -3 -55 -3 -55 -15 -47 -8 5 -8
1 0 -14 23 -43 3 -45 -22 -2 -17 28 -15 35 6 31 5 -1 6 3 2 9 -3 5 -12 10 -20
10 -7 0 -16 8 -20 19 -3 10 -13 25 -23 34 -16 14 -17 14 -19 -10 -1 -19 1 -22
8 -12 7 11 9 11 9 -3 0 -9 6 -23 13 -30 21 -21 59 -88 51 -88 -4 0 -3 -5 4
-12 7 -7 12 -22 12 -34 0 -20 -3 -19 -34 12 -34 34 -72 50 -46 19 7 -8 17 -12
23 -8 6 4 8 -2 5 -15 -4 -14 -2 -22 7 -22 14 0 38 -25 41 -44 1 -6 5 -24 9
-41 l7 -30 -21 25 c-13 15 -19 33 -16 47 3 12 1 25 -5 28 -6 4 -10 -5 -10 -21
0 -22 -2 -25 -15 -14 -8 7 -15 20 -16 29 0 13 -2 12 -8 -3 -6 -17 -9 -15 -20
12 -8 18 -17 32 -22 32 -8 0 -2 -26 11 -45 4 -5 10 -24 13 -40 5 -26 2 -31
-14 -31 -21 0 -26 12 -7 18 7 3 8 10 4 17 -7 11 -10 11 -17 0 -8 -12 -11 -11
-20 1 -9 12 -10 11 -6 -8 3 -12 1 -20 -3 -17 -5 3 -10 -1 -13 -7 -3 -7 -5 1
-4 19 0 21 6 33 16 36 9 2 2 5 -16 8 -18 3 -30 2 -27 -2 2 -4 0 -10 -6 -14 -7
-4 -7 -12 0 -25 8 -15 7 -18 -3 -14 -8 3 -17 -2 -20 -10 -9 -23 28 -103 50
-109 14 -4 14 -5 -4 -6 -13 0 -23 -6 -23 -12 0 -7 9 -9 21 -6 15 4 23 0 26
-14 3 -10 13 -19 23 -19 10 0 28 -9 41 -21 l24 -20 -25 7 c-14 4 -27 9 -30 13
-8 10 -43 10 -62 0 -14 -8 -26 -5 -45 9 -27 19 -27 19 -54 0 -22 -17 -26 -25
-19 -43 7 -19 6 -21 -16 -17 -21 4 -24 9 -19 32 8 38 -9 46 -24 12 -9 -18 -9
-28 -2 -30 20 -7 11 -20 -9 -15 -11 3 -20 11 -20 18 0 7 -6 15 -13 18 -10 3
-14 -4 -14 -23 0 -22 6 -30 26 -35 14 -4 29 -11 32 -17 8 -13 -9 -68 -21 -68
-4 0 -5 -11 -2 -25 2 -15 0 -25 -7 -25 -14 0 -14 35 1 59 18 29 3 52 -29 47
-35 -7 -75 3 -66 17 3 6 1 7 -5 3 -7 -4 -12 -15 -12 -26 0 -17 -27 -36 -38
-25 -3 3 0 5 6 5 21 0 13 19 -15 34 -16 8 -23 15 -18 16 11 0 -15 20 -27 20
-5 0 -8 -12 -9 -27 0 -16 -3 -22 -6 -15 -5 12 -33 18 -33 6 0 -3 7 -12 15 -21
9 -8 14 -18 11 -20 -8 -8 -36 24 -36 42 0 8 7 18 15 21 20 8 19 30 -1 38 -8 3
-12 10 -9 16 3 6 -1 7 -9 4 -11 -4 -16 0 -16 15 0 12 5 21 11 21 5 0 7 -4 4
-10 -14 -23 4 -8 20 16 10 15 12 23 4 19 -9 -6 -11 -4 -6 8 3 8 -1 21 -9 27
-11 10 -14 9 -14 -4 0 -11 -5 -15 -12 -10 -7 4 -10 4 -6 0 3 -4 2 -21 -3 -38
-5 -19 -4 -38 2 -50 9 -17 7 -18 -23 -13 l-33 5 38 -22 c41 -24 46 -38 20 -59
-15 -12 -16 -12 -10 4 5 14 2 16 -17 11 -20 -5 -27 0 -40 23 -8 15 -15 23 -16
17 0 -6 9 -23 20 -37 32 -41 23 -48 -27 -22 -25 14 -48 23 -51 20 -3 -3 0 -5
7 -5 7 0 11 -7 8 -14 -4 -10 -1 -13 9 -9 19 7 44 -14 44 -38 0 -11 5 -19 11
-19 8 0 8 -5 -1 -15 -7 -8 -21 -15 -30 -15 -10 0 -21 -6 -23 -12 -3 -7 -6 -4
-7 7 l-1 20 -8 -20 c-9 -23 7 -55 27 -55 8 0 12 -6 10 -12 -3 -7 4 -19 14 -28
16 -13 17 -19 7 -47 -6 -19 -18 -33 -27 -33 -15 0 -14 2 1 17 16 17 15 19 -25
56 -23 21 -48 37 -56 35 -14 -3 -14 -5 -1 -18 8 -9 22 -31 32 -49 l17 -33 -24
6 c-13 3 -32 9 -43 12 -16 5 -16 4 2 -11 16 -13 17 -17 6 -24 -9 -6 -10 -11
-2 -15 6 -4 9 -11 6 -15 -2 -5 8 -14 23 -21 l27 -13 -25 -7 c-23 -6 -24 -7 -6
-17 17 -10 17 -10 -3 -16 -19 -5 -23 -1 -20 19 0 3 -10 15 -23 26 -20 17 -23
18 -26 4 -2 -9 -8 -16 -13 -16 -6 0 -7 -9 -4 -20 4 -12 2 -20 -5 -20 -7 0 -8
-6 0 -19 14 -28 12 -41 -5 -35 -11 5 -13 2 -9 -10 12 -30 -14 -16 -29 16 -11
23 -14 55 -11 106 2 48 0 71 -7 67 -5 -4 -9 -14 -8 -23 3 -33 -1 -43 -13 -36
-8 5 -8 1 1 -10 12 -14 12 -19 1 -26 -7 -4 -11 -14 -8 -22 3 -7 -1 -19 -9 -27
-12 -11 -14 -11 -12 0 4 26 -13 49 -35 49 -15 0 -27 9 -35 26 -10 23 -10 25 9
19 31 -10 24 11 -17 51 -32 30 -34 35 -15 31 14 -3 22 0 22 9 0 7 12 20 28 28
l27 15 -30 2 c-16 1 -36 2 -42 2 -18 -1 -16 18 4 32 20 15 27 49 8 42 -10 -4
-11 3 -4 31 5 23 4 41 -2 49 -6 7 -8 17 -4 23 3 5 1 10 -4 10 -6 0 -11 17 -11
38 0 21 -6 47 -14 58 -13 17 -14 16 -7 -17 8 -34 7 -36 -13 -31 -19 5 -19 4
-7 -11 12 -16 12 -17 -5 -11 -16 6 -17 5 -6 -7 17 -19 15 -32 -5 -25 -15 6
-15 5 1 -13 10 -10 17 -28 16 -38 -1 -10 -1 -20 0 -23 16 -40 -9 -72 -38 -48
-13 11 -14 7 -8 -37 5 -28 12 -52 16 -55 5 -3 11 -17 15 -32 6 -23 3 -28 -29
-39 -27 -10 -33 -16 -24 -26 8 -10 3 -13 -26 -13 -24 0 -36 5 -36 14 0 8 5 16
11 18 11 4 20 55 12 75 -3 7 -11 13 -19 13 -18 0 -20 86 -1 93 8 3 3 14 -15
34 -23 23 -26 32 -15 42 10 11 6 13 -20 8 -25 -5 -33 -3 -33 8 0 8 9 15 19 15
28 0 35 17 11 25 -11 3 -20 15 -20 25 0 10 -5 22 -11 25 -6 5 -4 12 8 21 11 8
13 13 6 14 -8 0 -13 13 -13 31 0 38 -27 70 -41 48 -23 -34 -28 -48 -24 -68 2
-11 -1 -23 -6 -27 -6 -3 -8 -17 -5 -30 5 -17 2 -24 -8 -24 -18 0 -30 -61 -14
-72 10 -6 10 -10 -1 -17 -8 -5 -11 -16 -7 -26 4 -13 2 -16 -9 -12 -19 8 -27
-7 -31 -55 -6 -64 -19 -73 -53 -37 -13 14 -27 20 -40 16 -12 -3 -21 -2 -21 3
0 4 9 10 20 13 11 3 25 17 31 31 10 21 9 30 -6 52 -17 26 -18 27 -31 9 -8 -10
-14 -14 -14 -7 0 16 23 66 35 74 5 4 0 8 -12 8 -18 0 -23 6 -23 24 0 14 4 28
10 31 6 4 4 14 -4 28 -8 12 -18 39 -21 59 -9 48 -25 39 -25 -13 0 -21 -5 -39
-11 -39 -6 0 -8 -9 -4 -21 5 -15 4 -19 -4 -15 -15 10 -14 -3 3 -36 10 -19 11
-28 3 -31 -9 -3 -9 -13 0 -40 12 -41 9 -45 -20 -20 -18 17 -19 17 -15 -11 2
-21 -5 -37 -29 -62 -38 -41 -53 -43 -54 -6 -1 16 -3 20 -6 10 -2 -10 -9 -18
-15 -18 -6 0 -8 -9 -5 -20 3 -10 0 -21 -5 -22 -7 -3 -7 -11 1 -26 10 -18 9
-22 -4 -22 -8 0 -15 -7 -15 -15 0 -8 -4 -15 -9 -15 -6 0 -18 -13 -27 -29 -10
-17 -22 -27 -27 -24 -6 3 -7 1 -3 -5 3 -6 2 -13 -3 -17 -6 -3 -8 16 -6 52 7
90 14 110 53 145 20 19 44 43 51 54 8 10 -8 -3 -37 -31 -36 -34 -52 -44 -52
-32 0 22 47 108 71 128 10 9 16 19 13 22 -3 2 9 16 26 31 17 14 26 26 20 26
-10 0 -9 4 0 15 7 9 8 15 2 15 -5 0 -12 -6 -15 -14 -3 -7 -23 -22 -44 -33 -21
-11 -36 -22 -34 -24 2 -2 -6 -24 -18 -49 -21 -42 -21 -43 -2 -20 11 14 21 21
21 17 0 -12 -33 -67 -40 -67 -11 0 -5 64 8 87 16 29 15 41 -2 18 -12 -17 -14
-16 -18 14 -3 17 -1 34 3 37 5 2 6 11 3 18 -3 8 8 30 25 49 17 19 31 38 31 42
0 4 -9 -3 -20 -16 -10 -13 -19 -20 -20 -16 0 12 51 110 68 130 10 11 11 17 3
17 -8 0 -6 10 5 33 14 28 14 30 0 17 -8 -8 -17 -25 -19 -38 -6 -41 -22 -43
-21 -2 0 33 -2 38 -14 28 -9 -8 -10 -14 -3 -16 13 -4 15 -34 2 -47 -5 -6 -11
-21 -13 -34 -5 -39 -27 -38 -23 1 2 18 6 56 9 83 6 73 14 117 27 147 6 15 9
33 6 40 -3 7 -6 3 -6 -9 -2 -40 -20 -34 -30 9 -8 37 -9 32 -4 -32 3 -49 0 -85
-8 -105 l-13 -30 -4 28 c-2 16 2 36 9 45 8 9 9 13 4 9 -5 -4 -15 3 -22 15
l-12 23 -2 -22 c-3 -42 -2 -48 6 -76 12 -46 -1 -43 -56 12 -28 28 -52 51 -55
51 -2 0 9 -17 24 -39 15 -21 30 -37 34 -35 11 7 41 -43 35 -58 -3 -8 -10 -2
-17 15 -7 15 -16 27 -20 27 -4 0 -1 -16 8 -34 9 -19 20 -32 25 -29 5 3 4 -3
-2 -14 -6 -12 -7 -23 -1 -29 5 -5 12 -45 14 -88 3 -43 7 -81 10 -84 3 -3 6
-19 5 -36 0 -31 0 -31 -10 -6 -16 38 -20 70 -28 200 -1 12 -3 13 -10 1 -5 -7
-6 -22 -3 -34 3 -14 1 -18 -6 -13 -7 4 -12 12 -12 17 0 6 -7 17 -15 25 -13 14
-15 14 -15 0 0 -8 5 -18 10 -21 6 -4 8 -11 5 -16 -4 -5 1 -12 10 -15 9 -4 14
-12 11 -19 -2 -7 2 -21 9 -32 8 -10 14 -29 15 -43 l0 -25 -25 30 c-13 17 -24
36 -25 43 0 7 -5 10 -11 6 -8 -4 -9 1 -5 17 5 17 4 20 -2 9 -11 -18 -9 -45 7
-83 6 -16 9 -33 5 -38 -3 -5 2 -9 10 -9 11 0 16 -10 16 -32 0 -31 0 -31 18
-12 15 14 16 20 5 22 -7 2 -13 10 -13 18 0 8 -4 14 -9 14 -5 0 -11 9 -14 20
-3 11 -1 20 4 20 5 0 9 -4 9 -9 0 -5 9 -12 19 -16 11 -3 22 -19 26 -35 4 -17
10 -30 15 -30 15 0 0 -193 -16 -210 -10 -10 -14 -11 -14 -2 0 7 -4 11 -9 7 -6
-3 -9 4 -8 15 1 11 5 20 9 20 4 0 8 8 8 18 0 15 -2 15 -11 2 -8 -11 -9 2 -6
47 3 39 1 66 -5 70 -6 3 -8 1 -4 -5 3 -6 2 -13 -4 -17 -5 -3 -8 -19 -6 -36 3
-24 0 -29 -12 -24 -12 4 -12 3 -3 -9 6 -8 11 -29 11 -47 -1 -19 2 -59 5 -89
l6 -55 -36 59 c-20 32 -34 61 -31 63 3 3 15 -11 27 -31 11 -20 23 -36 25 -36
11 0 -32 69 -67 109 -45 51 -49 73 -34 179 4 31 4 52 -2 52 -5 0 -10 -19 -12
-42 -3 -53 -15 -67 -32 -37 -7 13 -18 30 -26 37 -8 8 -17 27 -20 43 -3 16 -9
32 -14 35 -5 3 -6 -8 -3 -24 4 -17 1 -32 -5 -36 -16 -10 -4 -26 14 -19 10 3
15 -2 15 -16 0 -12 9 -47 20 -78 24 -69 24 -69 5 -53 -8 7 -12 16 -9 21 3 5
-2 9 -10 9 -9 0 -16 3 -16 8 0 4 -13 16 -28 27 -27 19 -27 19 -12 0 8 -11 31
-36 52 -55 39 -38 70 -120 73 -196 1 -38 -1 -42 -23 -39 -17 2 -22 -2 -18 -12
3 -8 6 -17 6 -19 0 -3 4 -3 8 0 12 7 38 -12 29 -21 -5 -4 -11 -3 -15 2 -10 14
-32 17 -32 5 0 -5 -8 -7 -17 -4 -14 4 -13 2 2 -7 25 -15 35 -30 29 -41 -3 -4
0 -8 7 -8 7 0 9 -10 7 -25 -3 -14 -1 -25 3 -25 5 0 9 -4 9 -10 0 -5 -7 -7 -16
-3 -14 5 -14 2 2 -22 18 -27 18 -27 -1 -21 -17 5 -20 1 -20 -27 0 -17 3 -36 6
-42 4 -5 1 -15 -6 -22 -10 -9 -17 -8 -31 8 -18 20 -6 27 14 7 7 -7 12 -8 12
-2 0 5 -5 15 -12 22 -9 9 -9 15 0 24 8 8 6 17 -8 36 -21 27 -26 52 -10 52 5 0
9 10 7 22 -2 24 -36 58 -58 58 -8 0 -7 6 4 18 10 10 17 23 17 29 0 6 6 16 14
22 12 10 17 8 26 -9 6 -12 14 -19 17 -16 3 3 0 12 -7 21 -7 8 -8 15 -2 15 5 0
12 9 15 20 3 11 1 18 -3 15 -10 -6 -30 50 -33 93 -1 17 -5 30 -9 29 -4 -1 -19
12 -33 28 -16 19 -23 23 -18 11 4 -14 3 -17 -6 -12 -13 9 -5 47 13 58 6 5 2 8
-11 8 -18 0 -23 6 -23 24 0 13 5 26 12 28 8 3 7 14 -5 38 -9 18 -17 43 -17 54
0 26 -15 51 -23 39 -3 -5 -7 -28 -8 -50 -2 -35 -5 -40 -23 -35 -21 5 -21 5 -2
-16 11 -12 14 -22 8 -22 -7 0 -12 5 -12 10 0 6 -5 10 -11 10 -6 0 1 -21 15
-46 29 -52 31 -58 14 -48 -8 5 -9 -5 -5 -34 5 -39 -4 -55 -18 -32 -28 45 -27
-58 1 -111 8 -17 13 -33 11 -36 -10 -9 -67 -12 -72 -2 -4 5 -2 9 3 9 5 0 12 9
15 20 4 17 2 18 -14 9 -24 -12 -25 -1 -1 17 14 11 15 15 3 23 -11 7 -10 11 5
19 15 9 17 14 8 29 -6 10 -22 18 -34 18 -16 0 -24 7 -26 22 -2 12 1 25 6 28 6
4 8 11 5 16 -4 5 -3 15 2 22 10 16 13 68 3 62 -5 -3 -11 -1 -15 5 -3 5 -16 8
-29 4 -15 -3 -31 2 -47 16 -21 19 -22 21 -4 17 11 -3 28 -8 37 -12 11 -4 20 0
29 16 10 19 9 25 -8 39 -16 13 -19 25 -16 75 4 65 -5 78 -47 68 -22 -6 -23 -4
-12 10 16 18 8 37 -14 37 -9 0 -14 6 -11 13 2 6 9 11 15 10 17 -4 22 48 5 54
-11 4 -12 8 -3 13 24 15 0 28 -43 25 -23 -2 -33 -1 -22 2 38 10 49 63 18 83
-17 11 -17 11 0 6 9 -3 17 -1 17 4 0 6 -5 10 -11 10 -6 0 -8 8 -4 19 4 13 -4
31 -26 55 l-31 36 -22 -22 c-12 -14 -22 -39 -24 -62 -1 -22 -10 -44 -18 -51
-14 -10 -14 -12 0 -24 13 -11 16 -11 16 -1 0 8 3 11 6 7 3 -3 -1 -18 -9 -34
-9 -15 -18 -36 -21 -45 -3 -10 -15 -18 -26 -18 -11 0 -20 -7 -20 -16 0 -9 8
-14 18 -13 29 3 68 -2 55 -7 -7 -3 -9 -12 -6 -20 6 -16 -10 -18 -37 -4 -26 14
-54 2 -39 -16 8 -10 9 -18 0 -27 -6 -8 -7 -18 -3 -22 4 -5 2 -5 -4 -2 -14 8
-42 -42 -28 -51 11 -8 12 -22 3 -37 -9 -15 10 -77 21 -70 6 4 10 1 10 -5 0 -6
-8 -10 -17 -8 -17 3 -18 -33 -21 -619 l-2 -623 3000 0 3000 0 0 455 c-1 390
-3 455 -16 455 -18 0 -18 14 0 29 9 8 15 32 15 67 l0 55 -30 -5 c-37 -5 -37 2
1 37 28 26 29 30 14 45 -11 11 -13 17 -5 20 6 2 11 8 11 13 0 5 -11 4 -25 -1
-13 -5 -26 -6 -28 -2 -9 15 6 72 19 72 8 0 14 6 14 14 0 9 -9 14 -20 13 -11
-1 -20 -7 -20 -13 0 -7 -15 -22 -34 -34 -19 -11 -37 -29 -39 -38 -3 -14 -6
-12 -14 8 -6 14 -7 26 -2 28 5 2 7 7 4 12 -3 5 4 11 14 15 13 4 18 11 14 22
-5 13 -2 15 11 10 13 -5 17 -3 13 7 -3 8 0 17 8 20 9 3 11 13 7 28 -3 12 -7
17 -9 11 -3 -7 -11 -9 -19 -6 -9 3 -21 -3 -30 -16 -9 -12 -20 -19 -25 -16 -5
4 -9 1 -9 -4 0 -6 -9 -3 -19 6 -11 9 -17 21 -14 27 4 6 8 6 11 -2 4 -14 42 54
42 75 0 7 5 13 10 13 19 0 10 18 -12 24 -23 6 -23 6 -3 24 21 18 25 35 13 48
-5 4 -8 2 -8 -5 0 -8 -6 -11 -16 -7 -14 5 -15 4 -5 -8 19 -23 3 -38 -32 -31
l-32 6 25 -15 c14 -9 20 -15 14 -16 -5 0 -19 6 -29 14 -24 18 -13 45 25 59 17
6 30 15 30 20 0 5 -7 7 -15 3 -8 -3 -15 0 -15 6 0 7 -7 3 -15 -8 -14 -19 -14
-19 -15 3 0 12 4 24 9 28 6 3 6 18 1 36 -5 16 -6 38 -3 47 6 15 5 16 -12 2
-17 -14 -18 -13 -13 21 5 27 3 36 -8 36 -9 0 -12 -7 -9 -16 3 -9 1 -30 -4 -46
-9 -32 2 -75 18 -75 6 0 8 8 5 18 -5 16 -5 16 6 0 8 -13 8 -23 1 -35 -6 -10
-11 -12 -11 -5 0 6 -4 12 -10 12 -5 0 -7 -7 -4 -15 4 -9 0 -15 -10 -15 -20 0
-21 -29 -1 -36 17 -7 21 -54 4 -54 -5 0 -7 -4 -4 -10 3 -5 -1 -10 -9 -10 -9 0
-15 3 -14 8 6 16 -30 52 -46 46 -18 -7 -21 -29 -6 -39 8 -5 8 -11 0 -20 -8 -9
-2 -16 25 -29 36 -18 44 -30 23 -40 -9 -4 -8 -5 2 -5 8 1 22 1 30 0 13 -1 13
-2 0 -11 -16 -11 -68 -4 -87 12 -9 7 -13 6 -13 -3 0 -7 -7 -3 -16 9 -9 13 -13
30 -10 38 3 8 2 13 -3 10 -5 -3 -12 2 -15 11 -6 15 -8 15 -16 3 -7 -11 -5 -19
7 -27 9 -7 13 -13 9 -13 -4 0 0 -7 8 -16 9 -8 16 -21 15 -27 0 -9 -2 -8 -6 1
-2 6 -12 12 -20 12 -11 0 -14 -7 -9 -27 4 -16 3 -23 -1 -18 -4 6 -17 17 -27
25 -18 14 -19 13 -14 -8 4 -16 2 -22 -7 -20 -13 3 -15 0 -15 -21 0 -5 17 -7
38 -4 29 4 41 1 52 -13 14 -16 13 -17 -5 -10 -11 4 -16 4 -13 0 4 -3 1 -19 -7
-35 -14 -25 -13 -29 3 -38 9 -6 11 -11 5 -11 -7 0 -13 -5 -13 -11 0 -5 5 -7
10 -4 6 3 10 1 10 -4 0 -16 -16 -13 -34 4 -8 8 -22 15 -30 15 -9 0 -13 6 -10
14 3 8 1 17 -4 20 -5 3 -9 -5 -9 -18 0 -15 8 -28 23 -35 30 -13 31 -31 2 -32
-13 0 -17 -3 -10 -6 6 -2 10 -8 7 -13 -3 -5 4 -11 15 -15 11 -3 20 -13 20 -20
0 -33 -25 -23 -76 31 -29 33 -54 54 -54 49 0 -6 5 -16 12 -23 7 -7 8 -12 2
-12 -5 0 7 -10 26 -22 27 -17 31 -23 18 -26 -10 -2 -18 -8 -18 -13 0 -5 8 -9
18 -9 14 0 15 -2 2 -10 -25 -16 -38 -12 -77 25 -37 35 -60 40 -31 8 10 -12 13
-25 8 -38 -7 -19 -7 -19 -14 3 -8 25 -21 29 -29 8 -6 -16 13 -77 27 -87 4 -4
3 -10 -3 -14 -9 -5 -9 -10 0 -21 9 -12 6 -14 -21 -14 -32 0 -33 0 -15 20 17
19 17 20 1 20 -13 0 -16 5 -11 20 5 16 3 19 -11 13 -13 -5 -15 -2 -9 15 4 14
2 22 -5 22 -6 0 -8 4 -5 10 3 5 -1 20 -9 32 l-16 22 0 -27 c0 -16 -4 -26 -10
-22 -13 8 -13 -1 0 -26 7 -11 7 -19 1 -19 -10 0 -9 -25 2 -36 4 -4 7 -12 7
-18 0 -6 -5 -5 -12 2 -9 9 -16 8 -30 -5 -17 -15 -18 -15 -13 -1 5 13 2 15 -12
12 -11 -3 -25 2 -33 11 -12 15 -11 16 15 9 26 -6 28 -5 21 17 -4 13 -10 44
-13 69 -5 45 -19 64 -37 53 -5 -4 -7 1 -3 11 5 13 0 20 -23 29 -36 14 -40 26
-6 20 15 -3 25 1 29 11 4 9 2 16 -4 16 -5 0 -9 8 -7 18 2 12 -4 17 -19 17 -12
0 -26 4 -30 9 -4 4 -1 6 7 4 10 -2 16 6 18 25 2 15 -1 27 -6 27 -5 0 -7 11 -4
25 2 14 -3 36 -13 51 -15 23 -19 24 -31 12 -8 -8 -16 -26 -18 -39 -1 -14 -6
-31 -10 -38 -5 -8 -4 -16 3 -20 13 -8 -13 -71 -30 -71 -5 0 -9 -4 -9 -10 0 -5
11 -10 23 -10 14 0 24 -6 24 -14 0 -11 -8 -13 -29 -9 -23 5 -27 3 -22 -10 3
-10 -4 -26 -20 -42 -30 -30 -32 -35 -11 -35 17 0 17 -5 6 -35 -5 -11 -4 -25 1
-32 5 -7 7 -17 3 -24 -6 -8 -9 -8 -15 0 -4 8 -19 -5 -41 -35 -19 -26 -53 -68
-76 -93 -23 -25 -50 -56 -60 -69 -18 -23 -18 -22 -16 40 2 70 -3 63 -17 -27
-9 -59 -9 -59 -4 18 3 43 8 85 11 94 6 15 7 14 14 -3 6 -15 8 -16 8 -3 1 9 18
32 39 51 20 19 44 43 51 54 8 10 -8 -3 -37 -31 -56 -53 -64 -49 -31 18 l21 42
-27 -30 c-20 -23 -23 -25 -15 -7 7 15 7 22 0 22 -6 0 -4 14 5 36 19 46 19 53
0 28 -13 -18 -14 -16 -15 24 0 24 5 53 12 65 6 12 13 31 14 43 1 11 16 44 33
72 29 49 29 52 8 41 -12 -7 -23 -12 -24 -11 -10 7 -14 0 -5 -10 6 -9 4 -19 -9
-32 -14 -15 -19 -16 -20 -5 -2 37 3 109 12 160 6 36 6 65 0 80 -9 21 -10 18
-10 -21 0 -55 -4 -77 -17 -90 -12 -12 -10 41 2 62 4 7 4 10 -1 6 -4 -4 -13 0
-20 8 -9 13 -11 4 -8 -45 2 -45 0 -60 -8 -55 -8 4 -9 0 -4 -15 4 -12 2 -21 -4
-21 -6 0 -11 4 -11 8 0 5 -7 17 -16 28 -12 15 -15 15 -10 2 2 -9 -2 -19 -10
-22 -9 -3 -12 -11 -8 -17 5 -9 11 -7 19 5 11 15 13 14 20 -11 5 -21 8 -24 16
-12 5 9 9 9 9 2 0 -6 -5 -15 -10 -18 -6 -4 -8 -15 -5 -25 10 -32 15 -63 20
-120 2 -30 6 -65 9 -78 3 -12 1 -20 -3 -17 -5 2 -11 18 -14 35 -4 16 -11 30
-17 30 -6 0 -8 -6 -4 -12 4 -7 -4 -2 -19 12 -15 14 -27 32 -27 41 0 9 -6 16
-14 16 -8 0 -12 -6 -9 -14 6 -16 2 -16 -28 0 -21 10 -24 19 -24 69 0 70 17 94
34 47 12 -35 6 -53 -9 -29 -6 8 -10 11 -10 5 0 -15 16 -37 26 -35 4 1 12 -7
16 -17 5 -10 6 -3 2 17 -4 19 -8 47 -8 62 -1 14 -3 24 -5 22 -7 -7 -41 28 -41
43 0 8 5 11 10 8 6 -3 10 1 10 9 0 14 -3 14 -20 4 -25 -16 -25 -27 -2 -45 16
-14 16 -14 0 -9 -12 4 -17 0 -16 -12 1 -9 0 -41 0 -71 -2 -51 -3 -53 -17 -35
-15 18 -15 18 -8 0 4 -13 3 -17 -4 -13 -6 4 -4 -9 6 -28 21 -44 17 -117 -7
-113 -10 2 -18 -7 -22 -22 l-6 -25 -6 27 c-3 15 -1 25 3 22 15 -9 10 6 -6 23
-9 8 -19 28 -22 44 -8 42 -20 44 -19 4 1 -19 7 -37 14 -40 6 -2 12 -13 12 -24
0 -11 9 -43 20 -71 11 -27 15 -50 10 -50 -6 0 -10 3 -10 8 0 4 -19 23 -43 42
-46 38 -33 17 25 -39 20 -20 40 -49 44 -65 6 -26 5 -28 -15 -21 -28 9 -27 -9
2 -23 17 -8 18 -11 5 -11 -22 -1 -23 -17 -4 -28 12 -7 12 -11 1 -26 -12 -17
-14 -16 -23 15 -6 18 -12 44 -14 57 -4 29 -50 80 -60 67 -6 -9 -58 94 -58 114
0 5 -15 13 -32 19 -29 10 -34 9 -50 -11 -14 -18 -18 -20 -18 -6 0 9 -5 18 -12
20 -8 3 -7 8 4 18 20 19 12 56 -8 39 -11 -9 -14 -8 -14 5 0 26 42 19 67 -11
13 -14 23 -31 23 -36 0 -6 9 -2 20 8 21 19 27 45 10 45 -5 0 -13 -7 -18 -15
-7 -14 -11 -13 -27 5 -10 11 -19 32 -21 47 -1 16 -3 30 -4 33 -5 12 -5 36 1
45 3 6 0 20 -6 33 l-13 23 -20 -25 c-20 -26 -52 -35 -52 -16 0 6 14 23 32 39
26 23 36 26 49 18 14 -9 22 -6 38 14 11 13 20 27 21 32 0 11 -18 8 -22 -4 -6
-18 -77 -17 -82 1 -3 9 -5 7 -4 -5 1 -37 -2 -44 -24 -65 -29 -27 -35 -18 -9
18 l21 29 -20 24 c-15 16 -17 25 -9 30 7 4 9 15 5 25 -6 16 -8 16 -22 -4 -8
-11 -14 -25 -13 -29 4 -23 -2 -43 -11 -38 -6 4 -8 10 -5 15 3 5 0 12 -5 15 -8
5 -6 13 6 26 20 22 8 25 -19 5 -13 -10 -17 -23 -14 -45 5 -28 4 -29 -16 -18
-12 7 -28 19 -35 27 -12 13 -13 13 -8 -3 3 -10 0 -20 -9 -23 -18 -7 -37 4 -29
18 4 6 10 5 16 -3 8 -11 9 -11 5 1 -2 8 2 23 11 33 8 9 11 17 5 17 -5 0 -15
11 -21 25 -10 21 -9 27 3 31 22 9 18 24 -6 24 -11 0 -18 4 -14 9 3 5 0 13 -6
16 -7 5 -9 0 -7 -12 2 -11 -3 -27 -11 -37 -12 -15 -12 -16 5 -10 18 5 18 5 2
-9 -10 -8 -18 -21 -18 -30 0 -9 -9 -21 -20 -27 -14 -8 -20 -8 -20 0 0 6 -4 9
-10 5 -5 -3 -26 1 -46 10 -34 14 -36 14 -41 -6 -3 -12 -11 -18 -19 -15 -7 3
-19 0 -27 -7 -38 -35 -58 -50 -56 -42 2 6 0 20 -4 31 -5 15 -14 20 -27 17 -11
-3 -19 -8 -18 -12 1 -3 -4 -17 -10 -31 l-11 -25 -7 23 c-5 17 -12 21 -28 17
-19 -6 -19 -4 4 14 14 11 27 15 29 10 2 -6 9 0 15 13 10 20 18 23 61 21 28 -1
45 0 38 3 -7 3 -9 12 -6 20 3 8 1 14 -5 14 -6 0 -13 -6 -15 -12 -3 -8 -6 -5
-6 5 -1 12 -5 16 -13 11 -9 -5 -9 -2 1 9 12 16 8 22 -12 18 -5 -1 -6 3 -2 9 3
5 1 10 -5 10 -7 0 -14 -8 -17 -18 -2 -10 -13 -23 -24 -30 -18 -11 -19 -10 -15
13 3 14 0 25 -5 25 -5 0 -9 -4 -9 -10 0 -5 -5 -10 -12 -10 -6 0 -4 7 5 18 10
10 17 23 17 29 0 10 43 43 56 43 3 0 4 -9 1 -20 -3 -11 -1 -20 3 -20 5 0 10
10 12 23 2 12 13 26 26 32 12 5 22 13 22 18 0 4 -4 5 -10 2 -5 -3 -10 -1 -10
4 0 15 43 14 58 -1 9 -9 12 -8 12 5 0 13 6 15 28 11 19 -4 34 1 50 14 14 13
33 18 53 16 23 -3 30 0 26 10 -3 7 0 19 6 26 7 8 -1 4 -17 -9 -21 -15 -32 -18
-37 -10 -4 8 -13 5 -27 -9 -13 -13 -33 -20 -58 -20 l-38 0 27 16 c27 17 38 47
15 40 -7 -3 -13 -11 -13 -18 0 -7 -6 -15 -13 -18 -9 -3 -10 2 -2 22 5 14 6 26
2 26 -4 0 4 10 18 21 14 11 18 17 10 13 -13 -7 -13 -5 -1 9 7 9 16 15 20 13 4
-3 12 4 19 14 8 14 8 19 -2 23 -7 3 -18 -3 -24 -14 -8 -12 -18 -16 -29 -12
-13 5 -15 2 -10 -11 4 -9 3 -15 -2 -12 -5 3 -12 -1 -15 -9 -3 -8 -11 -14 -18
-13 -7 2 -12 -3 -13 -10 0 -17 -25 -32 -50 -31 -19 0 -19 1 2 11 12 6 24 17
27 25 3 8 1 11 -4 8 -6 -3 -10 -3 -10 2 1 8 85 63 96 62 13 -1 30 46 20 53
-10 7 -41 -28 -41 -46 0 -5 -5 -11 -12 -13 -8 -3 -11 4 -8 18 4 22 4 22 -13 5
-12 -14 -14 -20 -4 -23 13 -5 7 -23 -9 -23 -6 0 -7 6 -3 13 4 6 -2 3 -14 -7
-12 -11 -22 -16 -22 -12 0 4 -7 0 -16 -9 -9 -9 -19 -13 -22 -10 -7 7 38 55 50
52 6 -1 19 14 30 33 11 19 29 41 39 48 20 14 25 32 9 32 -5 0 -10 -6 -10 -14
0 -18 -35 -30 -52 -20 -10 6 -10 4 0 -8 11 -14 10 -20 -4 -36 -9 -11 -22 -18
-29 -16 -6 3 -18 -3 -26 -12 -12 -15 -12 -17 0 -9 10 6 12 4 7 -4 -5 -7 -14
-10 -21 -7 -8 3 -21 -7 -30 -21 -10 -14 -12 -22 -6 -19 6 4 11 2 11 -4 0 -6 6
-8 13 -5 6 4 -3 -5 -21 -20 -26 -21 -30 -30 -20 -36 9 -6 7 -9 -9 -9 -27 0
-28 6 -9 41 7 15 10 32 6 39 -10 17 -20 -1 -26 -47 -7 -54 -15 -62 -44 -43
-13 9 -11 14 11 33 18 14 24 28 20 39 -6 15 -8 15 -28 -2 -19 -15 -29 -36 -32
-72 -2 -18 -17 -6 -19 15 -1 14 11 37 30 58 19 20 32 45 33 61 0 15 5 32 11
38 7 7 10 -2 9 -31 l-2 -41 19 23 c14 19 17 20 11 5 -4 -13 -3 -17 4 -13 6 4
14 1 17 -5 3 -7 4 -6 3 4 -1 9 2 17 7 17 4 0 15 12 22 27 11 21 12 30 2 41 -9
11 -8 13 3 11 8 -2 13 2 12 8 -1 7 7 20 17 29 13 11 20 14 20 6 0 -7 5 -9 11
-5 8 5 8 9 -1 14 -9 5 -9 13 -2 27 9 15 7 19 -8 20 -16 1 -29 -18 -34 -51 0
-5 -7 -11 -15 -14 -9 -3 -12 0 -9 10 4 9 -2 14 -19 16 -22 2 -24 0 -13 -13 16
-20 19 -74 4 -68 -6 2 -9 15 -6 29 3 19 1 23 -12 18 -13 -5 -16 1 -16 28 0 19
6 40 13 48 10 12 9 12 -5 1 -15 -11 -18 -11 -18 2 0 9 -5 19 -11 23 -8 5 -10
-3 -5 -28 6 -34 -13 -90 -35 -104 -5 -3 0 11 11 31 24 43 25 61 5 69 -8 3 -15
1 -15 -4 0 -6 -6 -9 -12 -7 -7 1 -14 -8 -16 -20 -2 -13 2 -23 8 -23 7 0 10 7
6 15 -3 8 -1 15 4 15 16 0 18 -15 4 -35 -14 -19 -14 -19 -29 1 -13 18 -14 18
-15 1 0 -10 -4 -16 -9 -13 -12 8 -34 -21 -26 -34 3 -6 11 -8 16 -5 5 4 9 2 9
-3 0 -5 -12 -12 -26 -15 -20 -3 -24 -1 -19 12 4 9 9 31 12 48 3 18 9 31 12 28
4 -2 15 10 25 28 10 18 11 25 4 16 -7 -9 -22 -19 -33 -21 -11 -2 -19 -10 -17
-18 6 -25 -8 -60 -23 -60 -18 0 -20 17 -2 23 6 2 9 8 4 12 -13 15 -27 -10 -32
-56 -3 -24 -6 -49 -7 -56 -1 -7 -5 -10 -10 -7 -4 3 -9 -1 -9 -8 -1 -7 -2 -17
-4 -23 -1 -5 -3 -16 -3 -22 -1 -7 -7 -13 -13 -13 -6 0 -9 9 -6 20 3 10 0 18
-5 17 -6 -1 -13 4 -16 12 -2 8 -1 11 4 8 5 -3 10 9 10 26 1 17 6 33 13 35 6 2
11 13 11 24 0 21 22 48 39 48 6 0 9 6 7 13 -1 6 -1 8 2 4 7 -14 32 15 32 37 0
12 8 33 17 46 l17 25 -24 -20 -23 -20 17 33 c9 17 21 32 26 32 6 0 1 9 -10 20
-22 22 -40 26 -40 10 0 -5 6 -10 14 -10 9 0 12 -8 8 -25 -5 -31 -9 -31 -32 -3
l-18 23 -7 -48 c-8 -50 -17 -58 -35 -29 -10 14 -11 13 -6 -8 7 -33 -8 -59 -19
-33 -5 10 -7 23 -6 28 1 6 -3 4 -10 -2 -18 -18 -34 -16 -19 2 7 9 14 37 16 63
4 60 4 61 13 37 7 -17 8 -17 13 8 4 19 1 27 -8 27 -8 0 -13 3 -13 8 5 28 -35
54 -44 28z m-36 -95 c8 12 12 11 24 -5 17 -22 20 -92 5 -101 -9 -6 -11 1 -14
50 -1 11 -5 21 -10 22 -13 2 -26 25 -25 43 1 9 3 8 6 -4 4 -15 7 -16 14 -5z
m3 -133 c3 -16 2 -28 -3 -28 -12 0 -21 26 -21 58 1 31 13 15 24 -30z m166 34
c0 -5 -12 -19 -26 -33 l-26 -24 19 32 c17 31 33 43 33 25z m-222 -27 c0 -22
-3 -23 -16 -13 -8 7 -17 12 -19 11 -1 -2 -3 0 -4 4 0 4 8 10 18 14 10 4 19 8
19 8 1 1 2 -10 2 -24z m129 -8 c1 -26 0 -28 -7 -12 -11 26 -12 45 -2 45 4 0 8
-15 9 -33z m-78 -89 c1 -22 -17 -24 -25 -3 -4 8 -10 12 -15 9 -11 -6 -11 11
-2 57 l6 34 18 -40 c10 -22 18 -48 18 -57z m39 57 c-3 -3 -9 2 -12 12 -6 14
-5 15 5 6 7 -7 10 -15 7 -18z m-260 -90 c-3 -3 -9 2 -12 12 -6 14 -5 15 5 6 7
-7 10 -15 7 -18z m548 8 c-3 -3 -1 -15 4 -28 7 -17 5 -25 -6 -29 -11 -4 -14 2
-12 22 1 15 -1 33 -6 40 -5 8 -2 10 9 6 9 -4 14 -9 11 -11z m-509 -43 c-1 -45
-4 -47 -22 -23 -13 18 -9 53 7 53 5 0 6 5 2 12 -4 6 -3 8 4 4 6 -3 10 -24 9
-46z m466 35 c-3 -9 -8 -14 -10 -11 -3 3 -2 9 2 15 9 16 15 13 8 -4z m-278
-15 c-4 -11 -2 -20 4 -20 6 0 11 -5 11 -11 0 -18 -23 -4 -31 20 -6 14 -5 20 1
16 6 -3 10 -1 10 4 0 6 3 11 6 11 3 0 2 -9 -1 -20z m-122 1 c4 0 7 -6 7 -11 0
-7 -6 -7 -20 0 -24 13 -25 8 -4 -28 15 -26 15 -26 -10 3 -14 17 -26 33 -26 36
0 5 23 5 53 0z m390 -23 c-9 -15 -23 -8 -23 12 0 17 2 19 14 8 8 -7 12 -16 9
-20z m-31 -49 c-10 -15 -10 -19 0 -17 7 2 18 12 25 23 9 15 12 16 13 5 0 -9
-7 -25 -15 -37 -8 -12 -11 -23 -5 -25 6 -2 6 -8 0 -18 -8 -13 -10 -13 -10 2 0
10 -9 22 -20 28 -23 12 -26 49 -8 83 l11 22 10 -24 c8 -16 7 -28 -1 -42z
m-461 23 c9 -16 13 -36 9 -47 -6 -17 -7 -17 -13 -2 -4 10 -1 17 6 18 7 0 2 4
-10 9 -13 6 -23 18 -23 30 0 28 12 25 31 -8z m385 3 c-9 -9 -16 -13 -16 -8 0
12 22 34 28 28 2 -2 -3 -11 -12 -20z m-317 -32 c1 -7 -6 -13 -15 -13 -11 0
-14 5 -10 16 3 9 6 23 7 32 0 14 2 13 9 -3 5 -11 9 -26 9 -32z m86 10 c19 -21
34 -46 32 -56 -2 -19 -21 -24 -23 -7 -1 6 -2 15 -3 20 0 6 -9 10 -20 10 -11 0
-21 9 -24 21 -5 20 -5 20 15 2 23 -20 17 -2 -10 30 -29 33 -2 17 33 -20z m115
0 c0 -7 -4 -13 -9 -13 -5 0 -8 12 -8 26 0 18 2 22 8 13 5 -8 9 -20 9 -26z
m-80 17 c0 -5 -2 -10 -4 -10 -3 0 -8 5 -11 10 -3 6 -1 10 4 10 6 0 11 -4 11
-10z m-236 -12 c-3 -5 11 -32 30 -60 20 -30 31 -55 25 -59 -15 -9 -7 -31 20
-57 20 -20 21 -26 10 -33 -13 -8 -6 -13 14 -10 4 0 7 -4 7 -9 0 -24 -35 -4
-44 26 -5 17 -12 20 -34 16 -23 -5 -25 -3 -14 10 10 13 10 19 -3 31 -8 9 -20
28 -25 42 -8 22 -8 26 4 22 8 -3 16 2 19 14 3 10 1 19 -3 19 -5 0 -12 9 -15
21 -4 12 -12 18 -21 15 -13 -5 -20 5 -9 15 7 8 44 5 39 -3z m756 -9 c-7 -11
-14 -18 -17 -15 -3 3 0 12 7 21 18 21 23 19 10 -6z m-491 -11 c-17 -33 -21
-36 -17 -13 2 17 16 34 26 35 1 0 -3 -10 -9 -22z m195 -3 c1 -9 7 -20 12 -23
16 -11 25 -42 13 -42 -6 0 -9 -9 -6 -20 3 -10 -1 -24 -8 -30 -10 -8 -13 -5
-14 12 -1 13 -3 47 -6 77 -3 48 3 67 9 26z m-34 -21 c0 -14 -3 -23 -8 -20 -4
2 -6 -13 -4 -34 4 -35 1 -40 -22 -46 -14 -3 -26 -8 -26 -10 0 -2 10 -22 21
-44 12 -23 19 -44 15 -47 -3 -4 -6 -1 -6 6 0 7 -4 10 -9 7 -15 -10 -28 18 -27
59 1 34 4 39 20 37 17 -3 18 -1 7 11 -9 11 -9 17 -1 22 7 4 9 16 6 28 -5 22 9
57 24 57 6 0 10 -12 10 -26z m430 11 c-7 -8 -17 -15 -22 -15 -6 0 -5 7 2 15 7
8 17 15 22 15 6 0 5 -7 -2 -15z m-875 -4 c3 -5 1 -12 -5 -16 -5 -3 -10 1 -10
9 0 18 6 21 15 7z m105 -8 c0 -5 -5 -15 -10 -23 -8 -12 -10 -11 -10 8 0 12 5
22 10 22 6 0 10 -3 10 -7z m35 -31 c2 -11 9 -30 15 -41 6 -12 7 -21 1 -21 -5
0 -12 -12 -16 -27 -6 -25 -8 -26 -14 -9 -4 11 -7 29 -6 40 1 12 -5 26 -14 33
-14 10 -13 13 8 21 16 6 20 11 13 16 -7 4 -12 12 -12 19 0 18 20 -6 25 -31z
m626 9 c-13 -10 -21 -23 -17 -30 4 -6 1 -11 -9 -11 -9 0 -13 5 -9 11 4 8 0 7
-15 -1 -12 -6 -19 -15 -16 -21 8 -12 -6 -11 -25 1 -13 9 -12 12 4 25 11 8 30
15 42 15 12 0 24 7 28 15 3 8 13 15 23 15 15 0 14 -3 -6 -19z m-591 -17 c0 -8
-5 -12 -10 -9 -6 4 -8 11 -5 16 9 14 15 11 15 -7z m653 3 c3 -7 -3 -13 -14
-13 -13 0 -15 3 -7 13 6 7 12 13 13 13 2 0 5 -6 8 -13z m-208 -7 c3 -5 2 -10
-4 -10 -5 0 -13 5 -16 10 -3 6 -2 10 4 10 5 0 13 -4 16 -10z m-357 -33 c12
-12 20 -27 18 -34 -3 -7 1 -13 9 -13 8 0 15 -5 15 -10 0 -7 -6 -7 -20 0 -11 6
-19 14 -17 18 1 4 -8 18 -20 32 -27 28 -31 15 -6 -20 11 -16 13 -25 5 -28 -7
-2 -9 -15 -5 -34 5 -24 3 -30 -8 -26 -8 2 -15 18 -17 34 -2 16 -7 33 -11 37
-4 4 -6 -7 -3 -25 4 -31 3 -32 -10 -14 -14 17 -15 17 -21 2 -4 -10 -3 -15 3
-11 6 3 10 1 10 -4 0 -18 -19 -12 -30 8 -13 25 -13 34 0 26 6 -3 10 3 10 13 0
23 25 47 39 38 5 -3 7 2 4 12 -6 26 26 25 55 -1z m357 4 c10 -17 -12 -21 -25
-6 -10 12 -10 15 3 15 9 0 18 -4 22 -9z m-35 -32 c0 -11 -4 -17 -10 -14 -5 3
-10 13 -10 21 0 8 5 14 10 14 6 0 10 -9 10 -21z m136 -6 c-10 -10 -19 5 -10
18 6 11 8 11 12 0 2 -7 1 -15 -2 -18z m-619 -15 c-3 -7 -5 -2 -5 12 0 14 2 19
5 13 2 -7 2 -19 0 -25z m-2116 -14 c-5 -16 -10 -21 -10 -12 -1 18 10 51 15 45
2 -1 -1 -16 -5 -33z m2549 20 c0 -9 -5 -12 -12 -8 -9 6 -9 3 0 -9 9 -10 11
-27 7 -47 -8 -38 -18 -38 -32 0 -9 25 -8 33 9 55 23 29 28 31 28 9z m30 -5 c0
-5 -4 -9 -10 -9 -5 0 -10 7 -10 16 0 8 5 12 10 9 6 -3 10 -10 10 -16z m125 0
c-6 -16 -4 -20 6 -13 12 6 12 5 0 -9 -14 -18 -26 -24 -17 -8 3 5 -3 11 -14 14
-11 3 -18 1 -14 -4 3 -5 -4 -9 -15 -9 -11 0 -23 -5 -27 -11 -5 -9 1 -10 22 -5
l29 6 -24 -20 c-39 -33 -63 -18 -36 23 8 13 12 27 8 31 -4 4 1 4 12 0 14 -6
17 -4 13 7 -4 11 3 16 29 17 31 3 34 1 28 -19z m-860 1 c3 -5 1 -10 -4 -10 -6
0 -11 5 -11 10 0 6 2 10 4 10 3 0 8 -4 11 -10z m605 -16 c0 -14 -12 -19 -23
-8 -9 9 4 35 14 28 5 -3 9 -12 9 -20z m-128 -18 c15 -4 68 -76 68 -91 0 -3 -7
-5 -15 -5 -8 0 -15 5 -15 10 0 6 -6 10 -14 10 -8 0 -21 7 -30 15 -8 9 -18 16
-21 15 -3 0 -9 0 -13 0 -5 0 -9 15 -9 34 0 28 3 33 16 26 9 -5 24 -11 33 -14z
m-3019 0 c22 -17 22 -21 -2 -23 -11 -1 -21 6 -24 18 -6 22 1 24 26 5z m2542 4
c3 -5 1 -10 -4 -10 -6 0 -11 5 -11 10 0 6 2 10 4 10 3 0 8 -4 11 -10z m160
-10 c3 -5 2 -10 -4 -10 -5 0 -13 5 -16 10 -3 6 -2 10 4 10 5 0 13 -4 16 -10z
m60 0 c8 -13 -5 -13 -25 0 -13 8 -13 10 2 10 9 0 20 -4 23 -10z m517 -28 c-7
-2 -12 -14 -12 -27 0 -13 -4 -26 -9 -29 -5 -3 -8 7 -7 22 1 30 28 68 35 49 2
-6 -1 -13 -7 -15z m-2578 2 c3 -8 2 -12 -4 -9 -6 3 -10 10 -10 16 0 14 7 11
14 -7z m2272 -24 c6 0 19 -9 29 -20 16 -18 16 -20 2 -20 -11 0 -14 -5 -10 -16
5 -15 7 -15 15 0 5 9 18 16 28 16 21 0 28 -16 10 -22 -6 -2 -2 -8 9 -15 16
-10 20 -9 25 3 3 9 1 12 -4 9 -6 -3 -10 -1 -10 4 0 6 6 11 14 11 9 0 14 -9 13
-20 -1 -11 -4 -20 -8 -20 -4 0 -9 -14 -13 -31 -4 -20 -10 -28 -17 -23 -8 4 -9
3 -5 -4 4 -7 13 -12 20 -12 9 0 12 -9 9 -27 -4 -23 -2 -25 7 -13 9 12 11 12 8
1 -7 -26 -27 -23 -34 4 -3 14 -11 24 -17 22 -20 -6 -59 50 -52 75 5 17 4 19
-4 8 -5 -8 -12 -12 -13 -10 -2 3 -12 18 -22 34 -18 29 -18 30 0 44 19 14 19
15 0 8 -12 -4 -23 0 -32 11 -21 28 -17 33 14 17 15 -7 32 -14 38 -14z m-3106
0 c0 -5 -4 -10 -10 -10 -5 0 -10 5 -10 10 0 6 5 10 10 10 6 0 10 -4 10 -10z
m40 0 c0 -5 -4 -10 -9 -10 -6 0 -13 5 -16 10 -3 6 1 10 9 10 9 0 16 -4 16 -10z
m800 -5 c0 -2 -7 -5 -15 -9 -9 -3 -15 0 -15 9 0 9 6 12 15 9 8 -4 15 -7 15 -9z
m2013 -9 c-3 -15 -10 -23 -18 -20 -11 4 -10 10 3 25 21 24 20 24 15 -5z m102
3 c-4 -5 6 -14 21 -19 15 -6 24 -13 21 -17 -3 -3 -14 -2 -24 2 -10 5 -21 7
-25 7 -4 -1 -7 9 -6 22 1 14 6 22 10 20 5 -3 6 -10 3 -15z m365 -32 c0 -5 -5
-7 -11 -5 -7 2 -13 17 -15 33 l-3 30 14 -25 c8 -14 14 -29 15 -33z m2415 44
c3 -5 1 -12 -5 -16 -5 -3 -10 1 -10 9 0 18 6 21 15 7z m-2968 -21 c14 -11 21
-20 15 -20 -12 0 -60 39 -49 40 5 0 20 -9 34 -20z m760 3 c0 -17 -14 -33 -29
-33 -12 0 -9 25 4 38 17 17 25 15 25 -5z m-650 -15 c-3 -8 -6 -5 -6 6 -1 11 2
17 5 13 3 -3 4 -12 1 -19z m728 12 c3 -5 2 -10 -4 -10 -5 0 -13 5 -16 10 -3 6
-2 10 4 10 5 0 13 -4 16 -10z m-152 -14 c3 -8 -2 -20 -11 -28 -15 -12 -16 -11
-3 5 9 12 10 17 2 17 -7 0 -9 5 -6 10 8 13 12 13 18 -4z m127 -6 c0 -5 -5 -10
-11 -10 -5 0 -7 5 -4 10 3 6 8 10 11 10 2 0 4 -4 4 -10z m-3432 -11 c-12 -7
-24 -7 -35 0 -15 9 -12 10 17 10 29 0 32 -1 18 -10z m3397 -8 c-3 -6 -11 -11
-17 -11 -6 0 -6 6 2 15 14 17 26 13 15 -4z m-3495 -1 c0 -5 -4 -10 -9 -10 -6
0 -13 5 -16 10 -3 6 1 10 9 10 9 0 16 -4 16 -10z m140 2 c0 -5 -7 -9 -15 -9
-8 0 -12 4 -9 9 3 4 9 8 15 8 5 0 9 -4 9 -8z m2614 -5 l28 -12 -21 -25 c-20
-23 -22 -24 -34 -8 -8 10 -18 14 -23 10 -5 -4 0 4 11 17 12 15 14 21 5 16 -24
-15 -39 -14 -33 1 6 17 28 17 67 1z m256 -20 c0 -20 0 -20 -14 -2 -8 11 -12
23 -9 28 8 13 23 -3 23 -26z m720 18 c0 -12 -19 -12 -23 0 -4 9 -1 12 9 8 7
-3 14 -7 14 -8z m141 -18 c-16 -16 -26 0 -10 19 9 11 15 12 17 4 2 -6 -1 -17
-7 -23z m-3694 17 c-3 -3 -12 -4 -19 -1 -8 3 -5 6 6 6 11 1 17 -2 13 -5z
m2763 -4 c0 -5 -4 -10 -10 -10 -5 0 -10 5 -10 10 0 6 5 10 10 10 6 0 10 -4 10
-10z m495 -4 c8 -7 11 -17 7 -20 -3 -4 0 -12 8 -17 13 -9 13 -10 0 -6 -8 2
-28 -7 -44 -20 -22 -18 -31 -21 -37 -12 -12 19 1 32 17 18 12 -10 15 -10 12 2
-2 8 -6 16 -10 19 -8 6 18 50 28 50 3 0 12 -6 19 -14z m-3530 -6 c3 -5 1 -10
-4 -10 -6 0 -11 5 -11 10 0 6 2 10 4 10 3 0 8 -4 11 -10z m4707 -9 c-7 -4 -10
-15 -6 -24 3 -10 1 -17 -5 -17 -6 0 -11 8 -11 18 0 20 20 45 29 36 3 -3 0 -9
-7 -13z m-2090 -23 c-8 -8 -9 -4 -5 13 4 13 8 18 11 10 2 -7 -1 -18 -6 -23z
m1293 13 c-8 -13 -35 -15 -35 -2 0 5 8 11 18 13 21 5 26 2 17 -11z m-838 -6
c7 0 12 -4 12 -10 -1 -5 -6 -9 -12 -7 -7 2 -7 -1 0 -10 11 -13 6 -88 -6 -88
-7 0 -36 43 -32 49 2 2 -2 7 -8 11 -16 9 -2 40 15 33 8 -3 14 0 14 6 0 6 -4
11 -10 11 -5 0 -10 5 -10 11 0 6 5 7 13 2 6 -4 18 -8 24 -8z m-158 -9 c14 -16
4 -46 -15 -46 -20 0 -17 18 4 23 13 3 11 6 -10 15 -16 6 -28 14 -28 17 0 11
38 4 49 -9z m91 4 c0 -5 -4 -10 -10 -10 -5 0 -10 5 -10 10 0 6 5 10 10 10 6 0
10 -4 10 -10z m450 0 c0 -5 -4 -10 -10 -10 -5 0 -10 5 -10 10 0 6 5 10 10 10
6 0 10 -4 10 -10z m-3355 -21 c-4 -5 -13 -9 -22 -9 -13 0 -13 3 -3 15 13 15
35 11 25 -6z m2578 6 c-3 -9 -8 -14 -10 -11 -3 3 -2 9 2 15 9 16 15 13 8 -4z
m127 6 c0 -5 8 -11 18 -13 14 -3 13 -5 -6 -10 -12 -3 -20 -2 -16 3 8 14 -20
11 -36 -3 -12 -11 -12 -10 -2 3 6 9 9 19 5 22 -3 4 3 7 15 7 12 0 22 -4 22 -9z
m1144 -7 c8 -20 -1 -34 -21 -34 -9 0 -13 6 -9 15 3 8 1 15 -5 15 -6 0 -7 5 -4
10 9 15 32 12 39 -6z m-3697 -11 c3 -7 -8 -10 -29 -8 -17 1 -34 7 -36 14 -2 7
8 10 29 8 18 -1 34 -7 36 -14z m2613 7 c0 -5 -2 -10 -4 -10 -3 0 -8 5 -11 10
-3 6 -1 10 4 10 6 0 11 -4 11 -10z m468 -7 c-8 -10 -6 -13 10 -13 16 0 20 -7
20 -35 0 -36 -14 -47 -24 -20 -4 8 -11 15 -16 15 -7 0 -6 -5 1 -13 6 -8 7 -18
3 -22 -4 -5 -1 -5 6 -1 20 12 14 -8 -8 -21 -25 -17 -31 -4 -19 40 7 27 14 35
26 30 12 -5 10 0 -5 15 -27 27 -28 41 -3 39 15 -1 17 -4 9 -14z m467 1 c-9 -9
-18 -14 -21 -11 -9 9 6 27 22 27 13 0 13 -2 -1 -16z m-685 -10 c0 -8 -4 -12
-10 -9 -5 3 -10 10 -10 16 0 5 5 9 10 9 6 0 10 -7 10 -16z m625 -2 c-3 -3 -11
0 -18 7 -9 10 -8 11 6 5 10 -3 15 -9 12 -12z m298 -8 c-4 -12 -8 -13 -14 -3
-9 15 -2 32 11 24 5 -3 6 -13 3 -21z m1612 17 c3 -5 1 -12 -5 -16 -5 -3 -10 1
-10 9 0 18 6 21 15 7z m-2488 -23 c1 -10 -3 -21 -9 -24 -7 -4 -6 -9 2 -14 8
-5 7 -9 -5 -13 -9 -4 -14 -3 -10 2 3 5 -1 12 -7 14 -10 4 -10 8 1 15 11 8 12
14 3 24 -8 11 -7 14 7 14 9 0 18 -8 18 -18z m453 -11 c0 -4 -6 -2 -14 5 -8 7
-12 17 -9 22 5 8 23 -12 23 -27z m1090 17 c0 -8 -5 -12 -10 -9 -6 4 -8 11 -5
16 9 14 15 11 15 -7z m-3730 -44 c-12 -17 -25 -29 -28 -26 -2 3 1 12 8 21 10
12 10 15 -1 15 -8 1 -3 7 11 15 34 18 36 12 10 -25z m1895 18 c4 -10 13 -18
22 -18 12 0 9 -6 -9 -23 -14 -13 -28 -30 -31 -38 -5 -12 -7 -12 -16 1 -8 11
-9 7 -5 -17 8 -40 0 -42 -21 -5 l-16 27 6 -32 c7 -33 -8 -46 -19 -18 -6 17
-26 21 -26 5 0 -5 9 -18 21 -29 22 -21 18 -41 -8 -41 -9 0 -13 6 -9 15 3 8 1
15 -4 15 -6 0 -10 14 -10 30 0 21 5 30 16 30 8 0 13 4 9 9 -3 5 5 27 17 48 17
30 18 35 5 24 -16 -12 -17 -11 -13 10 3 13 5 24 5 25 1 0 19 1 41 1 30 0 41
-5 45 -19z m695 7 c0 -8 -4 -15 -9 -15 -13 0 -22 16 -14 24 11 11 23 6 23 -9z
m-1011 -9 c7 -8 8 -17 3 -20 -6 -3 -12 3 -15 14 -6 24 -4 25 12 6z m119 -17
c-3 -8 -7 -3 -11 10 -4 17 -3 21 5 13 5 -5 8 -16 6 -23z m823 17 c18 16 19 16
19 -4 0 -12 -6 -21 -12 -19 -8 1 -13 -9 -13 -25 1 -16 -3 -28 -8 -28 -4 0 -6
-4 -3 -9 8 -12 -3 -41 -15 -41 -12 0 -11 67 1 91 7 12 7 19 1 19 -6 0 -7 8 -3
18 6 16 7 16 10 -1 4 -18 5 -18 23 -1z m-730 -28 l-5 -33 -7 30 c-6 25 -10 30
-9 10 0 -3 -5 -12 -12 -19 -10 -10 -15 -11 -20 -2 -11 15 -10 28 1 22 5 -3 14
1 21 9 22 26 37 18 31 -17z m174 23 c10 -17 -12 -21 -25 -6 -10 12 -10 15 3
15 9 0 18 -4 22 -9z m805 -1 c0 -5 -5 -10 -11 -10 -5 0 -7 5 -4 10 3 6 8 10
11 10 2 0 4 -4 4 -10z m957 -11 c1 -12 1 -20 0 -18 -2 2 -9 12 -16 22 -11 14
-11 17 1 17 7 0 14 -10 15 -21z m-4677 1 c0 -5 -4 -10 -10 -10 -5 0 -10 5 -10
10 0 6 5 10 10 10 6 0 10 -4 10 -10z m3796 -18 c-18 -16 -18 -16 -6 6 6 13 14
21 18 18 3 -4 -2 -14 -12 -24z m62 -7 c0 -14 -4 -25 -8 -25 -6 0 -7 37 -1 48
4 9 9 -2 9 -23z m-2493 -4 c-3 -6 -11 -11 -17 -11 -6 0 -6 6 2 15 14 17 26 13
15 -4z m1045 9 c0 -5 -6 -10 -14 -10 -8 0 -18 5 -21 10 -3 6 3 10 14 10 12 0
21 -4 21 -10z m780 0 c0 -9 -31 -30 -44 -30 -4 0 -1 9 6 20 13 21 38 27 38 10z
m792 -12 c-7 -7 -12 -8 -12 -2 0 14 12 26 19 19 2 -3 -1 -11 -7 -17z m-3380
-23 c3 -14 1 -25 -3 -25 -5 0 -9 6 -9 14 0 8 -3 22 -7 32 -4 11 -3 15 4 11 6
-4 13 -18 15 -32z m2003 5 c15 -16 31 -27 35 -25 4 2 5 -7 2 -20 -4 -22 -24
-38 -21 -17 4 21 -2 42 -12 42 -6 0 -9 -9 -6 -20 3 -11 1 -18 -4 -14 -5 3 -9
10 -9 15 0 5 -9 19 -20 31 -18 20 -19 38 -1 38 4 0 20 -13 36 -30z m378 -13
c1 -14 -2 -25 -8 -24 -5 1 -9 10 -7 21 1 13 -2 16 -13 12 -9 -3 -15 0 -15 10
0 8 5 12 10 9 6 -3 10 -1 10 6 0 24 21 -7 23 -34z m447 39 c0 -2 -7 -9 -15
-16 -13 -11 -14 -10 -9 4 5 14 24 23 24 12z m530 -6 c0 -5 -8 -10 -17 -10 -15
0 -16 2 -3 10 19 12 20 12 20 0z m-1057 -13 c4 3 7 -2 7 -12 0 -15 -3 -16 -12
-7 -8 8 -15 9 -25 1 -14 -13 -16 -9 -7 15 5 12 10 14 19 6 6 -5 15 -7 18 -3z
m322 -7 c17 -19 17 -23 3 -53 -11 -23 -13 -39 -6 -50 6 -11 5 -17 -2 -17 -6 0
-13 6 -16 14 -3 8 -12 12 -20 9 -12 -4 -14 2 -11 31 3 24 1 35 -7 33 -6 -2
-10 -11 -10 -20 1 -9 -4 -13 -12 -10 -10 4 -11 9 -4 18 5 6 6 16 2 20 -4 5 -2
5 5 1 6 -3 14 -2 18 3 3 6 13 8 23 5 13 -5 14 -4 3 4 -13 10 -8 32 8 32 4 0
16 -9 26 -20z m-1781 2 c2 -4 -4 -9 -15 -9 -11 -1 -17 2 -14 8 7 11 22 12 29
1z m826 -36 c-17 -22 -27 -20 -35 5 -9 28 14 44 34 24 12 -11 12 -17 1 -29z
m814 36 c2 -4 -2 -15 -9 -25 -11 -16 -12 -15 -12 8 0 24 11 33 21 17z m236
-11 c0 -12 -20 -25 -27 -18 -7 7 6 27 18 27 5 0 9 -4 9 -9z m338 -9 c2 -7 -1
-12 -8 -12 -6 0 -9 4 -6 9 4 5 1 12 -4 14 -6 3 -5 4 2 3 6 -1 14 -8 16 -14z
m292 8 c0 -5 -2 -10 -4 -10 -3 0 -8 5 -11 10 -3 6 -1 10 4 10 6 0 11 -4 11
-10z m-538 -32 c-8 -8 -9 -4 -5 13 4 13 8 18 11 10 2 -7 -1 -18 -6 -23z m488
21 c0 -5 6 -6 14 -3 8 3 17 1 21 -5 3 -7 -2 -11 -14 -11 -12 0 -21 -4 -21 -8
0 -4 -15 -8 -32 -9 -30 -2 -28 1 11 13 10 3 10 8 2 17 -8 10 -7 14 4 14 8 0
15 -4 15 -8z m187 -26 c-3 -3 -11 -2 -17 2 -8 5 -7 11 2 22 12 15 13 14 16 -1
2 -10 1 -20 -1 -23z m106 30 c2 -5 -4 -16 -15 -25 -18 -18 -23 -12 -12 16 6
17 20 21 27 9z m-3572 -30 c-12 -20 -14 -14 -5 12 4 9 9 14 11 11 3 -2 0 -13
-6 -23z m2264 -16 c4 5 5 2 1 -5 -4 -7 0 -25 10 -40 14 -21 14 -24 2 -14 -13
10 -17 10 -22 -3 -3 -9 0 -15 9 -15 21 0 19 -23 -4 -37 -17 -11 -19 -9 -16 23
3 24 -1 34 -11 34 -8 0 -14 10 -14 25 0 14 6 25 13 25 7 0 8 3 2 8 -5 4 -11
16 -13 27 -2 16 1 15 16 -8 10 -15 22 -24 27 -20z m235 33 c0 -5 -2 -10 -4
-10 -3 0 -8 5 -11 10 -3 6 -1 10 4 10 6 0 11 -4 11 -10z m480 0 c13 -9 13 -10
0 -10 -13 0 -13 -2 0 -9 8 -6 18 -7 23 -4 4 3 7 -1 6 -8 -1 -8 1 -22 6 -32 9
-22 1 -31 -22 -23 -13 5 -14 9 -5 15 7 4 10 15 7 24 -8 21 -36 31 -46 16 -4
-7 -12 -8 -20 -4 -9 6 -6 11 10 17 12 4 19 12 16 18 -8 13 5 13 25 0z m150
-10 c0 -11 -2 -20 -4 -20 -2 0 -6 9 -9 20 -3 11 -1 20 4 20 5 0 9 -9 9 -20z
m396 -7 c-4 -33 -23 -43 -22 -11 1 19 12 37 23 38 1 0 0 -12 -1 -27z m348 12
c3 -8 1 -15 -4 -15 -6 0 -10 7 -10 15 0 8 2 15 4 15 2 0 6 -7 10 -15z m-2174
1 c0 -3 -4 -8 -10 -11 -5 -3 -10 -1 -10 4 0 6 5 11 10 11 6 0 10 -2 10 -4z
m190 0 c0 -3 -4 -8 -10 -11 -5 -3 -10 -1 -10 4 0 6 5 11 10 11 6 0 10 -2 10
-4z m830 -11 c0 -8 -4 -15 -10 -15 -5 0 -7 7 -4 15 4 8 8 15 10 15 2 0 4 -7 4
-15z m-1973 -1 c-3 -3 -12 -4 -19 -1 -8 3 -5 6 6 6 11 1 17 -2 13 -5z m751 -8
c13 4 13 2 -3 -10 -22 -18 -46 -18 -53 2 -2 7 2 10 12 6 10 -4 16 -1 17 7 0
10 2 10 5 2 3 -7 13 -10 22 -7z m1170 -26 c-9 -28 -28 -41 -28 -20 0 6 5 10
10 10 7 0 7 6 0 19 -7 14 -6 21 3 24 21 8 26 -3 15 -33z m443 9 c13 -24 2 -42
-20 -34 -12 5 -13 4 -4 -6 10 -10 16 -9 28 1 26 22 26 5 0 -20 -25 -24 -61
-37 -49 -19 3 5 10 7 15 4 5 -4 9 1 9 9 0 8 -5 18 -11 22 -6 3 -9 15 -6 25 3
11 1 19 -4 19 -5 0 -10 -4 -10 -10 -1 -5 -2 -15 -3 -22 0 -6 -6 -13 -13 -15
-9 -3 -10 4 -3 26 5 17 11 35 14 40 9 14 45 1 57 -20z m-2406 11 c-3 -5 -14
-10 -23 -10 -15 0 -15 2 -2 10 20 13 33 13 25 0z m1371 -5 c-3 -8 0 -15 6 -15
6 0 9 -3 5 -6 -10 -11 -26 6 -20 21 3 8 7 15 10 15 3 0 3 -7 -1 -15z m334 5
c0 -5 -2 -10 -4 -10 -3 0 -8 5 -11 10 -3 6 -1 10 4 10 6 0 11 -4 11 -10z
m1540 -16 c6 -14 8 -30 4 -35 -3 -5 2 -9 10 -9 12 0 14 5 6 25 -6 16 -6 25 0
25 6 0 10 -4 10 -9 0 -5 8 -12 18 -15 10 -4 24 -23 31 -43 17 -47 14 -176 -5
-217 l-14 -31 5 28 c4 17 2 26 -4 23 -5 -4 -12 -2 -16 4 -3 5 0 10 7 10 10 0
10 2 0 8 -14 10 -15 140 -1 158 6 8 4 14 -6 18 -11 4 -15 -1 -15 -17 0 -21
-36 -54 -47 -43 -8 8 7 26 23 26 8 0 14 9 14 20 0 11 -5 20 -11 20 -5 0 -8 -4
-5 -9 3 -5 -1 -11 -9 -15 -17 -6 -30 10 -15 19 5 3 10 11 10 16 0 6 -5 7 -12
3 -7 -5 -9 0 -6 14 3 12 1 23 -5 25 -12 4 -1 27 14 27 5 0 14 -12 19 -26z
m-3470 -64 c0 -5 -12 -10 -26 -10 -21 0 -25 -4 -21 -20 6 -24 -12 -38 -24 -19
-16 26 -9 57 19 79 15 12 19 19 10 16 -15 -4 -16 -2 -6 13 11 18 13 16 30 -15
10 -19 18 -38 18 -44z m-457 23 c-3 -7 1 -13 8 -13 14 0 49 -29 49 -42 0 -17
-19 -7 -25 13 -4 11 -9 18 -12 16 -6 -7 20 -57 47 -87 42 -48 90 -163 60 -145
-12 8 -13 3 0 -29 7 -20 6 -24 -5 -19 -18 6 -19 -10 -4 -39 8 -16 8 -19 -2
-16 -7 2 -16 11 -19 19 -4 8 -12 24 -19 37 -6 13 -9 28 -5 34 4 6 3 8 -3 5
-17 -11 -41 68 -38 120 3 35 2 41 -4 23 -6 -18 -10 -21 -14 -10 -13 35 -33
147 -29 165 l5 20 7 -20 c4 -11 5 -26 3 -32z m2471 26 c-6 -11 -24 -2 -24 11
0 5 7 7 15 4 8 -4 12 -10 9 -15z m806 11 c0 -5 -7 -7 -15 -4 -8 4 -15 8 -15
10 0 2 7 4 15 4 8 0 15 -4 15 -10z m160 0 c0 -5 -5 -10 -11 -10 -5 0 -7 5 -4
10 3 6 8 10 11 10 2 0 4 -4 4 -10z m-3223 -22 c-3 -8 -6 -5 -6 6 -1 11 2 17 5
13 3 -3 4 -12 1 -19z m1768 12 c3 -5 2 -10 -4 -10 -5 0 -13 5 -16 10 -3 6 -2
10 4 10 5 0 13 -4 16 -10z m305 -11 c0 -6 -4 -7 -10 -4 -5 3 -10 11 -10 16 0
6 5 7 10 4 6 -3 10 -11 10 -16z m44 5 c9 -8 16 -25 16 -37 0 -17 -2 -19 -9 -7
-6 8 -7 18 -4 24 4 5 -1 7 -11 3 -13 -5 -17 -3 -13 7 3 8 1 17 -6 20 -9 3 -9
5 0 5 6 1 19 -6 27 -15z m406 6 c0 -5 -4 -10 -10 -10 -5 0 -10 5 -10 10 0 6 5
10 10 10 6 0 10 -4 10 -10z m34 1 c3 -4 0 -16 -7 -25 -11 -14 -12 -13 -12 9 0
25 9 33 19 16z m449 2 c-7 -2 -19 -2 -25 0 -7 3 -2 5 12 5 14 0 19 -2 13 -5z
m-2443 -13 c0 -5 -2 -10 -4 -10 -3 0 -8 5 -11 10 -3 6 -1 10 4 10 6 0 11 -4
11 -10z m990 0 c0 -5 -2 -10 -4 -10 -3 0 -8 5 -11 10 -3 6 -1 10 4 10 6 0 11
-4 11 -10z m810 -41 c0 -4 -7 -9 -15 -13 -8 -3 -15 -1 -15 5 0 6 -4 8 -9 4 -6
-3 -15 4 -22 16 -9 17 -13 19 -20 8 -10 -16 -12 -8 -3 14 5 13 11 12 45 -6 21
-11 39 -24 39 -28z m1285 41 c3 -5 1 -10 -4 -10 -6 0 -11 5 -11 10 0 6 2 10 4
10 3 0 8 -4 11 -10z m-3170 -10 c-3 -5 -13 -10 -21 -10 -8 0 -12 5 -9 10 3 6
13 10 21 10 8 0 12 -4 9 -10z m1025 0 c0 -5 -2 -10 -4 -10 -3 0 -8 5 -11 10
-3 6 -1 10 4 10 6 0 11 -4 11 -10z m1523 -11 c5 -3 -7 -6 -25 -7 -31 -1 -32 0
-14 14 11 7 22 11 25 7 3 -4 10 -11 14 -14z m1152 11 c3 -5 1 -10 -4 -10 -6 0
-11 5 -11 10 0 6 2 10 4 10 3 0 8 -4 11 -10z m-2205 -16 c0 -14 -3 -14 -15 -4
-8 7 -15 14 -15 16 0 2 7 4 15 4 8 0 15 -7 15 -16z m277 -31 c-3 -10 -5 -2 -5
17 0 19 2 27 5 18 2 -10 2 -26 0 -35z m259 -21 c-15 -15 -16 -14 -16 7 0 12 6
32 12 44 13 22 13 21 16 -7 2 -17 -3 -35 -12 -44z m799 59 c3 -5 1 -12 -5 -16
-5 -3 -10 1 -10 9 0 18 6 21 15 7z m-3305 -56 c-5 -27 -9 -69 -9 -92 -1 -23
-5 -44 -9 -47 -8 -5 2 126 13 173 10 41 13 18 5 -34z m4225 45 c18 -8 17 -9
-7 -9 -16 -1 -28 4 -28 9 0 12 8 12 35 0z m-3875 -3 c0 -2 -10 -12 -22 -23
l-23 -19 19 23 c18 21 26 27 26 19z m2335 -7 c-3 -5 -11 -10 -16 -10 -6 0 -7
5 -4 10 3 6 11 10 16 10 6 0 7 -4 4 -10z m-905 -10 c0 -5 -2 -10 -4 -10 -3 0
-8 5 -11 10 -3 6 -1 10 4 10 6 0 11 -4 11 -10z m630 1 c0 -6 -4 -13 -10 -16
-5 -3 -10 1 -10 9 0 9 5 16 10 16 6 0 10 -4 10 -9z m860 5 c0 -3 -4 -8 -10
-11 -5 -3 -10 -1 -10 4 0 6 5 11 10 11 6 0 10 -2 10 -4z m380 -17 c0 -5 -4 -9
-10 -9 -5 0 -10 7 -10 16 0 8 5 12 10 9 6 -3 10 -10 10 -16z m-4265 1 c3 -5 1
-10 -4 -10 -6 0 -11 5 -11 10 0 6 2 10 4 10 3 0 8 -4 11 -10z m2475 0 c0 -5
-2 -10 -4 -10 -3 0 -8 5 -11 10 -3 6 -1 10 4 10 6 0 11 -4 11 -10z m768 -15
c-3 -3 -9 2 -12 12 -6 14 -5 15 5 6 7 -7 10 -15 7 -18z m370 13 c-3 -7 -15
-14 -29 -16 -24 -4 -24 -3 -4 12 24 19 38 20 33 4z m118 -15 c-10 -10 -19 5
-10 18 6 11 8 11 12 0 2 -7 1 -15 -2 -18z m34 7 c0 -5 -5 -10 -11 -10 -5 0 -7
5 -4 10 3 6 8 10 11 10 2 0 4 -4 4 -10z m271 -18 c5 -12 5 -21 1 -21 -21 3
-32 -3 -32 -18 0 -13 3 -14 12 -5 18 18 24 15 47 -24 34 -57 25 -96 -14 -58
-15 15 -18 15 -39 -6 -15 -13 -26 -17 -30 -11 -4 5 3 15 14 21 13 7 19 18 16
26 -3 8 -1 14 4 14 6 0 10 5 10 11 0 6 -6 9 -14 6 -17 -7 -29 30 -14 40 7 4 4
11 -7 20 -18 12 -18 13 4 13 14 0 20 4 15 11 -4 7 -1 10 6 7 7 -2 17 -14 21
-26z m1079 -3 c0 -5 -8 -9 -17 -9 -17 -1 -17 -1 0 -11 9 -5 22 -7 29 -3 7 5 9
0 6 -14 -4 -12 -2 -22 3 -22 5 0 9 -5 9 -11 0 -18 -42 -5 -54 16 -6 11 -15 23
-19 26 -4 3 -3 18 3 33 9 23 13 26 25 16 8 -7 15 -16 15 -21z m-4115 -3 c-9
-6 -17 -21 -17 -33 -1 -12 -7 -19 -15 -16 -10 4 -10 10 -1 26 17 35 30 47 40
41 5 -3 2 -11 -7 -18z m60 14 c-3 -5 -14 -10 -23 -10 -15 0 -15 2 -2 10 20 13
33 13 25 0z m1673 -10 c-15 -23 -31 -21 -36 3 -3 12 4 17 22 17 24 0 25 -2 14
-20z m237 11 c3 -5 1 -12 -4 -15 -5 -3 -11 1 -15 9 -6 16 9 21 19 6z m222 -11
c1 -11 -4 -20 -13 -20 -17 0 -18 12 -2 28 7 7 12 12 13 12 0 0 1 -9 2 -20z
m30 -2 c-3 -8 -6 -5 -6 6 -1 11 2 17 5 13 3 -3 4 -12 1 -19z m428 3 c-3 -6
-11 -11 -17 -11 -6 0 -6 6 2 15 14 17 26 13 15 -4z m1190 9 c4 -6 -5 -10 -19
-10 -14 0 -26 5 -26 10 0 6 9 10 19 10 11 0 23 -4 26 -10z m-2965 -16 c0 -2
-7 -4 -15 -4 -8 0 -15 4 -15 10 0 5 7 7 15 4 8 -4 15 -8 15 -10z m250 -1 c0
-3 -8 -11 -17 -18 -12 -9 -20 -9 -28 -1 -10 8 -9 13 3 22 15 11 42 9 42 -3z
m690 -30 c0 -6 -8 -11 -18 -10 -15 1 -22 27 -13 56 2 8 30 -34 31 -46z m1401
20 c-12 -20 -14 -14 -5 12 4 9 9 14 11 11 3 -2 0 -13 -6 -23z m-2031 8 c0 -4
-11 -6 -25 -3 -14 2 -25 6 -25 8 0 2 11 4 25 4 14 0 25 -4 25 -9z m182 -6 c0
-5 -5 -11 -11 -13 -6 -2 -11 4 -11 13 0 9 5 15 11 13 6 -2 11 -8 11 -13z m228
5 c0 -5 -2 -10 -4 -10 -3 0 -8 5 -11 10 -3 6 -1 10 4 10 6 0 11 -4 11 -10z
m308 -2 c-6 -18 -28 -21 -28 -4 0 9 7 16 16 16 9 0 14 -5 12 -12z m422 8 c0
-3 -4 -8 -10 -11 -5 -3 -10 -1 -10 4 0 6 5 11 10 11 6 0 10 -2 10 -4z m210 -4
c0 -5 -7 -9 -15 -9 -8 0 -15 4 -15 9 0 4 7 8 15 8 8 0 15 -4 15 -8z m1650 -7
c7 -9 8 -15 2 -15 -5 0 -12 7 -16 15 -3 8 -4 15 -2 15 2 0 9 -7 16 -15z
m-4871 -27 c6 -17 9 -33 7 -35 -2 -3 -7 5 -11 16 -3 12 -11 21 -16 21 -12 0
-12 -27 1 -35 6 -4 8 -11 4 -16 -3 -6 -11 -3 -18 7 -7 9 -18 14 -24 10 -6 -3
-13 -2 -17 4 -3 5 3 10 14 10 14 0 23 9 27 25 8 34 20 31 33 -7z m1926 22 c3
-6 -1 -7 -9 -4 -18 7 -21 14 -7 14 6 0 13 -4 16 -10z m-385 -10 c0 -5 -2 -10
-4 -10 -3 0 -8 5 -11 10 -3 6 -1 10 4 10 6 0 11 -4 11 -10z m1214 -23 c-9 -24
-23 -11 -17 14 3 12 9 17 15 11 5 -5 6 -16 2 -25z m901 23 c-3 -5 -12 -7 -20
-3 -21 7 -19 13 6 13 11 0 18 -4 14 -10z m-2225 -8 c0 -13 -12 -22 -22 -16
-10 6 -1 24 13 24 5 0 9 -4 9 -8z m431 -15 c-13 -13 -26 -3 -16 12 3 6 11 8
17 5 6 -4 6 -10 -1 -17z m2169 19 c0 -3 -4 -8 -10 -11 -5 -3 -10 -1 -10 4 0 6
5 11 10 11 6 0 10 -2 10 -4z m-3413 -33 c-9 -9 -19 -14 -22 -11 -3 3 2 13 11
22 9 9 19 14 22 11 3 -3 -2 -13 -11 -22z m1973 7 c0 -11 -7 -20 -15 -20 -17 0
-18 2 -9 24 9 23 24 20 24 -4z m50 0 c7 -13 7 -33 1 -62 -7 -29 -7 -45 1 -49
6 -4 7 -12 3 -19 -5 -8 -12 -5 -22 10 -12 18 -13 24 -3 30 7 4 9 13 6 19 -4 6
-12 9 -17 6 -5 -4 -9 1 -9 9 0 10 9 16 23 16 21 1 21 1 3 15 -11 8 -16 21 -13
30 8 20 14 19 27 -5z m540 10 c0 -5 -12 -10 -27 -9 l-28 1 25 8 c14 4 26 8 28
9 1 1 2 -3 2 -9z m757 -12 c-3 -8 -6 -5 -6 6 -1 11 2 17 5 13 3 -3 4 -12 1
-19z m996 15 c-7 -2 -19 -2 -25 0 -7 3 -2 5 12 5 14 0 19 -2 13 -5z m-1987
-88 c-5 -15 -36 -10 -36 6 0 5 -6 9 -14 9 -18 0 -28 27 -20 52 5 17 9 16 41
-17 20 -21 32 -42 29 -50z m48 77 c3 -5 -1 -9 -9 -9 -8 0 -15 4 -15 9 0 4 4 8
9 8 6 0 12 -4 15 -8z m221 -13 c-10 -15 -25 -10 -19 6 4 8 10 12 15 9 5 -3 7
-10 4 -15z m705 11 c0 -5 -2 -10 -4 -10 -3 0 -8 5 -11 10 -3 6 -1 10 4 10 6 0
11 -4 11 -10z m-3550 -20 c0 -10 -8 -24 -17 -29 -10 -6 -14 -11 -9 -11 12 0
-34 -50 -46 -50 -5 0 -4 8 1 18 5 9 8 20 8 23 -3 8 47 69 56 69 4 0 7 -9 7
-20z m3656 -28 c-4 -3 -11 -1 -17 5 -8 8 -8 15 2 26 12 13 14 13 17 -5 2 -11
1 -22 -2 -26z m-2541 23 c17 -4 36 -7 43 -7 6 -1 12 -8 12 -16 0 -9 -6 -12
-17 -7 -10 4 -29 9 -43 11 -14 3 -32 12 -40 20 -13 13 -13 14 0 10 8 -3 29 -8
45 -11z m344 -16 c-8 -5 -23 -9 -34 -9 -17 0 -15 4 10 20 19 12 31 16 34 9 2
-6 -3 -15 -10 -20z m356 21 c-3 -5 -11 -10 -16 -10 -6 0 -7 5 -4 10 3 6 11 10
16 10 6 0 7 -4 4 -10z m919 -20 c-6 -6 -10 -2 -11 12 -2 16 1 18 10 9 7 -7 8
-14 1 -21z m558 8 c-9 -9 -15 -9 -24 1 -9 10 -9 12 -1 7 6 -3 15 -1 18 5 4 5
10 8 13 4 3 -3 0 -11 -6 -17z m659 -28 c8 0 8 -4 -1 -15 -13 -16 -50 -21 -50
-7 0 4 5 13 12 20 7 7 10 12 7 12 -3 0 -16 -11 -28 -24 -21 -22 -21 -24 -5
-41 17 -17 17 -18 -2 -31 -10 -7 -24 -18 -31 -24 -7 -5 -24 -15 -37 -22 -14
-6 -23 -14 -21 -18 2 -4 -7 -18 -20 -30 l-25 -23 0 24 c0 13 10 35 23 49 12
14 51 58 87 98 57 66 65 71 72 53 4 -12 13 -21 19 -21z m-3266 20 c4 -6 -5
-10 -19 -10 -14 0 -26 5 -26 10 0 6 9 10 19 10 11 0 23 -4 26 -10z m1935 -10
c0 -4 -8 -11 -17 -14 -10 -4 -14 -4 -10 0 4 4 2 13 -4 20 -8 9 -5 11 10 7 12
-3 21 -9 21 -13z m81 -3 c-13 -13 -26 -3 -16 12 3 6 11 8 17 5 6 -4 6 -10 -1
-17z m-3371 -14 c0 -19 -13 -9 -16 12 -1 8 2 13 7 9 5 -3 9 -12 9 -21z m3515
17 c-3 -5 -12 -7 -20 -3 -21 7 -19 13 6 13 11 0 18 -4 14 -10z m595 -32 c0 -9
6 -19 13 -21 8 -4 8 -6 0 -6 -13 -1 -44 55 -35 64 8 7 22 -16 22 -37z m120 32
c0 -5 -4 -10 -10 -10 -5 0 -10 5 -10 10 0 6 5 10 10 10 6 0 10 -4 10 -10z
m690 -21 c0 -5 -7 -9 -15 -9 -14 0 -13 -3 1 -25 16 -24 15 -25 -4 -25 -20 0
-21 3 -10 77 2 14 28 -3 28 -18z m-4680 0 c-7 -11 -14 -18 -17 -15 -3 3 0 12
7 21 18 21 23 19 10 -6z m2946 -24 c-3 -8 -12 -15 -20 -15 -7 0 -16 -6 -19
-14 -3 -8 -15 -20 -26 -25 -17 -9 -22 -7 -32 11 -11 20 -10 21 3 11 12 -10 15
-10 15 2 0 8 -5 15 -10 15 -5 0 -4 7 3 15 10 12 16 13 29 3 9 -7 13 -8 8 -3
-4 4 0 16 9 26 14 16 18 16 31 3 8 -8 12 -21 9 -29z m-1492 -6 c9 14 46 15 46
1 0 -15 -26 -23 -54 -16 -18 4 -23 13 -23 33 l0 28 12 -29 c7 -18 15 -24 19
-17z m812 25 c-3 -8 7 -15 25 -19 16 -4 27 -11 23 -16 -3 -5 2 -9 11 -9 9 0
13 -4 10 -10 -3 -5 -2 -10 3 -10 15 0 1 -48 -15 -55 -9 -3 -18 -3 -21 0 -3 3
0 5 6 5 25 0 11 36 -18 47 -16 6 -30 17 -30 25 0 8 -9 14 -20 14 -11 0 -20 -6
-20 -13 0 -7 7 -13 15 -13 8 0 15 -8 15 -17 0 -9 8 -25 17 -35 13 -14 13 -18
2 -14 -8 2 -26 7 -41 10 -15 3 -30 15 -33 26 -3 11 -13 20 -21 20 -8 0 -14 5
-14 11 0 5 -6 7 -12 3 -10 -6 -10 -4 0 7 6 7 12 21 12 30 0 20 19 27 73 26 26
0 36 -4 33 -13z m540 0 c-3 -9 -6 -18 -6 -20 0 -2 -4 -4 -9 -4 -5 0 -7 9 -4
20 3 11 10 20 15 20 6 0 7 -7 4 -16z m1983 -22 c-27 -19 -37 -7 -14 18 14 15
21 17 26 8 5 -7 0 -18 -12 -26z m41 28 c0 -5 -2 -10 -4 -10 -3 0 -8 5 -11 10
-3 6 -1 10 4 10 6 0 11 -4 11 -10z m-4960 -15 c0 -8 -4 -15 -10 -15 -5 0 -7 7
-4 15 4 8 8 15 10 15 2 0 4 -7 4 -15z m700 5 c0 -5 -2 -10 -4 -10 -3 0 -8 5
-11 10 -3 6 -1 10 4 10 6 0 11 -4 11 -10z m127 4 c-3 -3 -12 -4 -19 -1 -8 3
-5 6 6 6 11 1 17 -2 13 -5z m1388 -4 c3 -5 1 -10 -4 -10 -6 0 -11 5 -11 10 0
6 2 10 4 10 3 0 8 -4 11 -10z m1125 -15 c-31 -23 -58 -25 -45 -4 4 5 -2 9 -12
9 -15 0 -16 2 -3 10 8 5 33 10 54 10 l40 0 -34 -25z m-2780 -5 c0 -19 -11 -26
-23 -14 -8 8 3 34 14 34 5 0 9 -9 9 -20z m2890 -12 l0 -29 -26 28 c-15 15 -20
19 -13 8 30 -45 74 -80 98 -77 15 2 21 0 17 -7 -4 -6 -20 -11 -37 -11 -33 0
-35 -6 -13 -38 14 -20 14 -22 -2 -22 -13 0 -14 -3 -5 -13 6 -8 7 -18 3 -22 -4
-5 1 -5 10 -2 19 7 21 -12 3 -26 -6 -4 0 -10 13 -13 12 -4 22 -10 22 -16 0
-13 -39 10 -53 32 -14 24 -32 26 -23 4 5 -14 4 -15 -9 -4 -17 14 -21 35 -5 25
15 -9 12 8 -5 31 -17 22 -17 20 -15 -73 1 -38 -3 -63 -9 -63 -6 0 -8 -7 -5
-15 4 -8 1 -15 -5 -15 -6 0 -9 -13 -7 -30 2 -16 -1 -30 -6 -30 -10 0 -6 -39 6
-59 6 -10 5 -12 -2 -7 -7 4 -12 3 -12 -3 0 -5 6 -11 13 -14 6 -2 9 -8 5 -12
-4 -4 -14 -2 -23 5 -8 7 -16 10 -16 6 -1 -3 -3 -10 -4 -16 -1 -5 -3 -13 -4
-17 0 -3 -4 -4 -7 0 -3 3 0 22 7 42 11 30 11 37 -1 45 -11 7 -12 14 -3 33 10
21 9 26 -4 31 -10 4 -13 14 -9 30 8 31 -3 40 -26 19 -26 -23 -22 -7 7 31 27
36 32 57 13 52 -7 -1 -10 -1 -5 1 16 9 6 32 -15 35 l-23 3 25 23 25 23 -35 29
-34 28 34 32 c40 38 94 64 133 66 24 2 27 -2 27 -28z m460 28 c0 -2 -7 -9 -15
-16 -12 -10 -15 -10 -15 4 0 9 7 16 15 16 8 0 15 -2 15 -4z m30 -6 c0 -5 -5
-10 -11 -10 -5 0 -7 5 -4 10 3 6 8 10 11 10 2 0 4 -4 4 -10z m-2705 -18 c-3
-3 -11 0 -18 7 -9 10 -8 11 6 5 10 -3 15 -9 12 -12z m138 -2 c3 -13 0 -20 -9
-20 -8 0 -14 9 -14 20 0 11 4 20 9 20 5 0 11 -9 14 -20z m2112 9 c-4 -6 2 -13
14 -16 21 -5 30 -23 11 -23 -5 0 -7 -7 -4 -15 5 -11 2 -13 -10 -9 -10 4 -15
13 -12 21 3 8 2 12 -3 9 -5 -3 -8 6 -8 19 0 14 4 25 9 25 5 0 6 -5 3 -11z
m-2329 -13 c3 -8 21 -22 40 -31 19 -9 34 -20 34 -26 0 -6 5 -7 10 -4 6 3 10 2
10 -4 0 -18 -17 -21 -30 -6 -7 8 -16 13 -20 10 -11 -7 -54 34 -63 58 -3 9 -2
17 4 17 5 0 12 -6 15 -14z m2042 2 c7 -7 12 -18 12 -25 0 -11 -6 -9 -25 4 -13
10 -25 21 -25 26 0 11 25 8 38 -5z m776 -3 c-4 -8 -10 -12 -15 -9 -5 3 -9 0
-9 -7 0 -7 -3 -9 -7 -5 -5 4 1 14 11 22 25 18 27 18 20 -1z m-3436 -7 c7 -7
12 -17 12 -22 0 -6 -4 -5 -9 3 -5 7 -14 10 -20 7 -14 -9 -14 -27 0 -23 6 1 14
-4 17 -12 3 -10 0 -12 -12 -8 -10 4 -22 7 -27 7 -4 0 -6 7 -4 15 3 8 7 22 10
30 5 18 17 19 33 3z m2237 2 c7 -12 -12 -50 -25 -50 -11 0 -14 43 -3 53 9 10
21 9 28 -3z m1145 0 c0 -5 -5 -10 -11 -10 -5 0 -7 5 -4 10 3 6 8 10 11 10 2 0
4 -4 4 -10z m1025 4 c13 -5 10 -10 -16 -26 -17 -10 -34 -17 -37 -14 -3 4 -1 6
5 6 6 0 13 9 16 20 6 22 8 23 32 14z m-1797 -18 c15 4 24 3 20 -1 -4 -4 0 -15
9 -23 22 -23 -3 -29 -27 -7 -12 11 -27 15 -42 10 -18 -5 -20 -4 -8 4 8 6 11
11 7 11 -5 0 -5 5 -1 12 6 9 9 9 12 0 2 -8 13 -10 30 -6z m719 0 c0 -19 -34
-28 -41 -11 -4 12 5 18 35 24 3 0 6 -5 6 -13z m120 -23 c-21 -22 -32 -11 -15
16 8 13 16 17 22 11 7 -7 4 -16 -7 -27z m52 -8 c0 -5 -4 -3 -9 5 -5 8 -9 22
-9 30 0 16 17 -16 18 -35z m-3919 0 c-7 -9 -15 -13 -18 -10 -3 2 1 11 8 20 7
9 15 13 18 10 3 -2 -1 -11 -8 -20z m3805 -1 c-8 -9 -20 -12 -26 -8 -9 5 -7 11
6 20 23 17 40 7 20 -12z m-1115 -32 c0 -18 -46 -73 -54 -65 -3 3 -3 17 0 29 4
16 2 24 -7 24 -9 1 -5 8 10 20 13 11 20 20 17 20 -4 0 -4 5 0 12 8 13 34 -17
34 -40z m263 15 c-3 -4 -11 -6 -19 -3 -22 8 -16 -10 9 -27 l22 -16 -23 0 c-22
-1 -22 -1 -5 -28 14 -20 15 -27 5 -31 -10 -3 -9 -9 5 -24 17 -19 17 -20 -2
-34 -13 -9 -22 -11 -29 -4 -5 5 -15 10 -20 10 -6 0 1 -8 14 -17 14 -10 29 -17
33 -15 5 1 7 -3 5 -10 -3 -7 -15 -12 -26 -10 -12 2 -22 -2 -22 -7 0 -6 9 -11
19 -11 26 0 37 -18 16 -26 -14 -6 -14 -8 0 -24 14 -16 14 -18 0 -24 -9 -3 -21
-3 -27 0 -6 4 -9 1 -6 -7 3 -8 14 -13 24 -11 16 2 15 0 -6 -17 -13 -11 -28
-17 -32 -15 -4 3 -8 0 -8 -5 0 -6 -7 -11 -17 -11 -15 0 -15 2 1 19 17 19 17
20 -9 33 l-26 14 21 19 c24 21 26 37 5 29 -20 -8 -19 5 2 28 15 17 15 18 -1
18 -9 0 -21 10 -26 23 l-9 22 0 -22 c-1 -29 -21 -31 -21 -3 0 11 7 23 15 26
10 4 15 20 15 48 0 49 10 68 29 56 8 -4 21 -5 30 -2 13 5 11 7 -7 12 -33 7
-30 22 8 42 18 9 38 22 43 27 12 12 30 -7 20 -22z m94 -14 c28 -30 33 -39 20
-41 -19 -4 -22 -18 -7 -27 18 -11 11 -25 -12 -25 -23 0 -23 0 2 -20 20 -16 22
-20 8 -20 -21 0 -24 -20 -6 -38 9 -9 7 -12 -10 -12 -28 0 -28 -17 1 -40 12
-10 18 -22 14 -27 -5 -4 -14 0 -21 10 -7 9 -18 17 -24 17 -11 0 -10 55 3 83 5
13 4 16 -9 11 -10 -4 -16 -1 -16 9 0 9 -3 22 -6 30 -3 8 2 21 10 30 20 20 20
28 1 21 -8 -4 -15 -1 -15 5 0 6 5 11 10 11 6 0 10 5 10 10 0 6 -3 9 -7 9 -20
-3 -23 3 -13 21 15 28 25 25 67 -17z m-1473 19 c3 -5 -1 -9 -9 -9 -8 0 -12 4
-9 9 3 4 7 8 9 8 2 0 6 -4 9 -8z m823 2 c-3 -3 -12 -4 -19 -1 -8 3 -5 6 6 6
11 1 17 -2 13 -5z m399 -31 c-11 -11 -19 6 -11 24 8 17 8 17 12 0 3 -10 2 -21
-1 -24z m1034 28 c0 -6 -4 -13 -10 -16 -5 -3 -10 1 -10 9 0 9 5 16 10 16 6 0
10 -4 10 -9z m490 -5 c0 -12 -49 -30 -58 -21 -3 2 34 25 56 34 1 1 2 -5 2 -13z
m39 -42 c-13 -14 -29 -22 -36 -20 -16 6 -16 1 -2 -26 7 -12 7 -18 1 -14 -6 3
-22 2 -36 -4 -21 -7 -26 -6 -26 5 0 14 12 19 33 16 11 -2 9 8 -5 23 -11 11
-15 11 -24 -2 -6 -8 -16 -12 -23 -8 -20 13 9 38 36 31 13 -3 23 -1 23 5 0 5
11 10 24 10 13 0 30 7 37 16 9 11 15 12 17 4 2 -6 -6 -22 -19 -36z m479 29
c16 -16 16 -16 -1 -10 -10 4 -25 7 -33 7 -9 0 -12 5 -9 10 9 15 24 12 43 -7z
m51 -16 c0 -9 -2 -9 -6 1 -2 6 -8 10 -13 7 -4 -3 -11 2 -14 10 -4 13 -2 14 14
5 11 -6 20 -16 19 -23z m-4491 7 c-9 -9 -21 -13 -28 -9 -14 9 5 25 30 25 12 0
12 -3 -2 -16z m716 -23 c-1 -1 -12 3 -23 11 -12 8 -18 18 -14 21 6 7 43 -25
37 -32z m1266 29 c0 -5 -2 -10 -4 -10 -3 0 -8 5 -11 10 -3 6 -1 10 4 10 6 0
11 -4 11 -10z m1385 0 c-3 -5 -11 -10 -16 -10 -6 0 -7 5 -4 10 3 6 11 10 16
10 6 0 7 -4 4 -10z m372 -12 c-3 -8 -6 -5 -6 6 -1 11 2 17 5 13 3 -3 4 -12 1
-19z m-1879 -3 c5 -16 -25 -17 -31 -2 -3 8 1 13 11 12 10 0 18 -5 20 -10z
m1712 0 c11 -13 9 -15 -8 -12 -12 2 -25 7 -29 12 -5 4 -2 5 5 1 6 -4 12 -2 12
3 0 15 5 14 20 -4z m-3757 -20 c-7 -21 -12 -19 -10 4 0 11 5 18 9 15 4 -3 5
-11 1 -19z m1142 15 c-3 -5 -11 -10 -16 -10 -6 0 -7 5 -4 10 3 6 11 10 16 10
6 0 7 -4 4 -10z m1810 0 c3 -6 -1 -13 -10 -16 -19 -8 -30 0 -20 15 8 14 22 14
30 1z m665 2 c0 -5 -11 -18 -25 -30 -14 -12 -25 -17 -25 -12 0 17 5 25 12 23
4 -2 5 4 2 12 -4 10 0 15 15 15 12 0 21 -4 21 -8z m-3431 -43 c-20 -12 -22 -4
-8 23 12 21 13 21 17 4 2 -10 -2 -22 -9 -27z m1791 37 c0 -3 -4 -8 -10 -11 -5
-3 -10 -1 -10 4 0 6 5 11 10 11 6 0 10 -2 10 -4z m596 -28 c-3 -18 -11 -37
-18 -43 -8 -7 -9 -3 -4 15 3 14 6 33 6 43 0 9 5 17 11 17 8 0 9 -11 5 -32z
m931 26 c-3 -3 -12 -4 -19 -1 -8 3 -5 6 6 6 11 1 17 -2 13 -5z m-3697 -10 c0
-8 -19 -13 -24 -6 -3 5 1 9 9 9 8 0 15 -2 15 -3z m3864 -10 c4 -10 1 -14 -6
-12 -15 5 -23 28 -10 28 5 0 13 -7 16 -16z m236 6 c0 -5 -2 -10 -4 -10 -3 0
-8 5 -11 10 -3 6 -1 10 4 10 6 0 11 -4 11 -10z m-2751 -14 c7 -8 8 -17 3 -20
-6 -3 -12 3 -15 14 -6 24 -4 25 12 6z m951 4 c3 -1 17 -2 33 -2 17 -1 27 -6
27 -15 0 -11 -9 -14 -38 -10 -20 3 -46 9 -56 13 -13 5 -17 4 -13 -3 4 -6 0
-13 -8 -17 -18 -7 -19 -2 -4 22 10 15 36 21 59 12z m368 -22 c0 -30 -1 -31 -9
-10 -5 13 -7 28 -3 33 9 15 11 11 12 -23z m2179 16 c2 -6 -12 -10 -32 -10 -34
0 -42 6 -28 19 9 10 56 2 60 -9z m-634 -1 c4 -3 -1 -12 -11 -19 -25 -20 -34
-17 -20 6 13 21 21 24 31 13z m-355 -32 c3 -8 -1 -12 -9 -9 -7 2 -15 10 -17
17 -3 8 1 12 9 9 7 -2 15 -10 17 -17z m82 -9 c0 -4 -11 -7 -23 -7 -18 0 -23 5
-19 17 3 14 8 15 23 7 10 -5 19 -13 19 -17z m290 9 c0 -5 -7 -14 -15 -21 -12
-10 -15 -10 -15 2 0 8 3 18 7 21 9 10 23 9 23 -2z m-1970 -37 c0 -8 -6 -14
-14 -14 -8 0 -14 8 -13 19 1 21 27 17 27 -5z m1927 12 c-3 -8 -1 -16 5 -18 7
-3 8 -10 3 -18 -7 -11 -10 -10 -16 6 -11 28 -10 44 2 44 6 0 9 -6 6 -14z
m-337 -11 c11 -13 10 -14 -4 -9 -9 3 -16 10 -16 15 0 13 6 11 20 -6z m260 0
c0 -8 -4 -15 -10 -15 -5 0 -10 7 -10 15 0 8 5 15 10 15 6 0 10 -7 10 -15z
m740 -5 c12 -8 11 -10 -7 -10 -12 0 -25 5 -28 10 -8 13 15 13 35 0z m-2172
-31 c-3 -8 -7 -3 -11 10 -4 17 -3 21 5 13 5 -5 8 -16 6 -23z m1577 -1 c0 -24
-5 -34 -19 -36 -11 -2 -16 0 -12 6 3 6 2 13 -4 17 -24 15 -11 35 30 44 3 0 6
-14 5 -31z m-3855 -40 c0 -5 -8 0 -18 10 -11 9 -17 21 -14 25 4 8 31 -22 32
-35z m3530 32 c8 -5 12 -11 10 -14 -3 -2 -14 2 -24 10 -22 15 -10 19 14 4z
m262 -22 c-7 -7 -12 -8 -12 -2 0 14 12 26 19 19 2 -3 -1 -11 -7 -17z m-4165 6
c-3 -3 -12 -4 -19 -1 -8 3 -5 6 6 6 11 1 17 -2 13 -5z m2289 -21 c-8 -8 -36 5
-36 17 0 7 6 7 21 0 11 -7 18 -14 15 -17z m999 7 c3 -5 -1 -10 -10 -10 -9 0
-13 5 -10 10 3 6 8 10 10 10 2 0 7 -4 10 -10z m-525 -34 c0 -13 -7 -27 -16
-30 -23 -9 -26 -3 -15 28 13 33 31 34 31 2z m-3080 4 c0 -5 -5 -10 -11 -10 -5
0 -7 5 -4 10 3 6 8 10 11 10 2 0 4 -4 4 -10z m3610 1 c0 -12 -20 -25 -27 -18
-7 7 6 27 18 27 5 0 9 -4 9 -9z m65 -9 c-3 -3 -11 0 -18 7 -9 10 -8 11 6 5 10
-3 15 -9 12 -12z m-3290 -25 c7 -7 4 -8 -8 -3 -10 3 -25 6 -33 6 -8 0 -14 5
-14 11 0 12 40 2 55 -14z m3649 11 c-7 -11 -34 -10 -34 1 0 6 9 9 19 8 11 0
17 -5 15 -9z m99 -12 c25 -19 21 -29 -5 -15 -13 7 -24 12 -25 11 -9 -6 -23 0
-23 8 0 14 32 12 53 -4z m1017 -8 c0 -5 -11 -8 -25 -8 -14 0 -25 4 -25 9 0 5
11 8 25 7 14 0 25 -4 25 -8z m-1535 -9 c11 -17 -1 -21 -15 -4 -8 9 -8 15 -2
15 6 0 14 -5 17 -11z m835 -19 c-18 -11 -24 -6 -16 16 5 14 9 15 19 5 9 -9 9
-14 -3 -21z m-1130 5 c7 -8 8 -15 2 -15 -5 0 -15 7 -22 15 -7 8 -8 15 -2 15 5
0 15 -7 22 -15z m1965 -5 c3 -5 1 -10 -4 -10 -6 0 -11 5 -11 10 0 6 2 10 4 10
3 0 8 -4 11 -10z m-2225 -9 c0 -6 -4 -13 -10 -16 -5 -3 -10 1 -10 9 0 9 5 16
10 16 6 0 10 -4 10 -9z m1054 -6 c23 -17 13 -34 -11 -19 -19 12 -29 34 -16 34
4 0 17 -7 27 -15z m-4109 -15 c-3 -5 -12 -10 -18 -10 -7 0 -6 4 3 10 19 12 23
12 15 0z m1932 -7 c-4 -3 -2 -12 4 -20 7 -8 8 -13 1 -13 -12 0 -23 26 -15 34
4 3 9 6 11 6 3 0 2 -3 -1 -7z m-87 -28 c-7 -8 -17 -12 -23 -8 -6 4 -3 9 9 14
27 11 28 11 14 -6z m1220 0 c0 -8 -6 -15 -14 -15 -20 0 -29 17 -14 23 22 9 28
7 28 -8z m120 -26 c0 -15 -20 -20 -40 -9 -18 10 -19 11 -2 30 16 19 18 19 29
3 7 -9 13 -20 13 -24z m465 -17 c-6 -7 -35 18 -35 31 0 5 9 2 20 -8 11 -10 18
-20 15 -23z m465 7 c0 -4 -7 -6 -15 -3 -8 4 -15 10 -15 15 0 4 7 6 15 3 8 -4
15 -10 15 -15z m5 -30 c11 -16 -1 -22 -30 -15 -14 4 -23 11 -20 16 8 13 42 13
50 -1z"/>
<path d="M3270 1326 c0 -9 5 -16 10 -16 6 0 10 4 10 9 0 6 -4 13 -10 16 -5 3
-10 -1 -10 -9z"/>
<path d="M3240 1301 c0 -6 4 -13 10 -16 6 -3 7 1 4 9 -7 18 -14 21 -14 7z"/>
<path d="M3540 1350 c0 -5 5 -10 10 -10 6 0 10 5 10 10 0 6 -4 10 -10 10 -5 0
-10 -4 -10 -10z"/>
<path d="M2863 1245 c12 -24 31 -33 41 -17 8 13 -11 35 -23 28 -6 -4 -11 -2
-11 3 0 6 -4 11 -9 11 -5 0 -4 -11 2 -25z"/>
<path d="M3276 1163 c-4 -9 -3 -20 2 -25 6 -6 12 -1 15 11 6 25 -8 38 -17 14z"/>
<path d="M3454 2095 c-7 -17 3 -35 19 -35 7 0 6 4 -3 10 -10 6 -11 10 -2 10 6
0 12 7 12 15 0 19 -19 20 -26 0z"/>
<path d="M2927 2071 c-4 -15 -1 -21 12 -21 10 0 21 -3 25 -7 10 -11 37 -12 30
-2 -3 5 -9 7 -14 4 -4 -3 -17 7 -28 21 -18 26 -19 26 -25 5z"/>
<path d="M3040 2077 c0 -8 9 -22 20 -32 24 -21 27 -14 4 9 -8 9 -11 16 -5 16
6 0 11 5 11 10 0 6 -7 10 -15 10 -8 0 -15 -6 -15 -13z"/>
<path d="M2880 2075 c0 -18 19 -40 26 -32 4 4 0 15 -9 24 -9 10 -17 13 -17 8z"/>
<path d="M3625 2060 c3 -5 8 -10 11 -10 2 0 4 5 4 10 0 6 -5 10 -11 10 -5 0
-7 -4 -4 -10z"/>
<path d="M3027 2020 c-3 -13 -1 -18 6 -13 6 4 8 0 4 -10 -3 -10 -2 -17 3 -17
6 0 10 14 10 30 0 34 -15 40 -23 10z"/>
<path d="M3322 2010 c0 -14 2 -19 5 -12 2 6 2 18 0 25 -3 6 -5 1 -5 -13z"/>
<path d="M3355 2020 c-3 -5 -1 -10 4 -10 6 0 11 5 11 10 0 6 -2 10 -4 10 -3 0
-8 -4 -11 -10z"/>
<path d="M3160 2000 c0 -5 5 -10 11 -10 5 0 7 5 4 10 -3 6 -8 10 -11 10 -2 0
-4 -4 -4 -10z"/>
<path d="M3660 1984 c-5 -16 -14 -37 -20 -46 -7 -13 -6 -16 3 -12 7 2 17 21
24 42 14 44 8 58 -7 16z"/>
<path d="M3730 1969 c0 -11 4 -18 10 -14 5 3 7 12 3 20 -7 21 -13 19 -13 -6z"/>
<path d="M3050 1951 c0 -6 4 -13 10 -16 6 -3 7 1 4 9 -7 18 -14 21 -14 7z"/>
<path d="M2755 1940 c-4 -6 0 -10 9 -10 8 0 17 -6 19 -12 4 -8 6 -7 6 3 1 19
-25 33 -34 19z"/>
<path d="M3665 1920 c-3 -5 -1 -10 4 -10 6 0 11 5 11 10 0 6 -2 10 -4 10 -3 0
-8 -4 -11 -10z"/>
<path d="M2750 1890 c0 -5 5 -10 11 -10 5 0 7 5 4 10 -3 6 -8 10 -11 10 -2 0
-4 -4 -4 -10z"/>
<path d="M2835 1871 c-3 -5 -1 -12 5 -16 5 -3 10 1 10 9 0 18 -6 21 -15 7z"/>
<path d="M2726 1854 c-9 -24 -7 -28 9 -14 17 14 20 30 6 30 -5 0 -12 -7 -15
-16z"/>
<path d="M921 1814 c0 -11 3 -14 6 -6 3 7 2 16 -1 19 -3 4 -6 -2 -5 -13z"/>
<path d="M2742 1796 c6 -14 17 -27 24 -30 9 -3 5 7 -8 24 -26 36 -31 38 -16 6z"/>
<path d="M3100 1802 c0 -5 7 -16 16 -23 14 -12 16 -11 13 5 -4 20 -29 35 -29
18z"/>
<path d="M3347 1796 c-8 -21 3 -27 19 -11 18 17 18 25 0 25 -8 0 -16 -6 -19
-14z"/>
<path d="M861 1784 c0 -11 3 -14 6 -6 3 7 2 16 -1 19 -3 4 -6 -2 -5 -13z"/>
<path d="M3940 1790 c0 -5 5 -10 11 -10 5 0 7 5 4 10 -3 6 -8 10 -11 10 -2 0
-4 -4 -4 -10z"/>
<path d="M816 1757 c3 -10 9 -15 12 -12 3 3 0 11 -7 18 -10 9 -11 8 -5 -6z"/>
<path d="M901 1744 c0 -11 3 -14 6 -6 3 7 2 16 -1 19 -3 4 -6 -2 -5 -13z"/>
<path d="M2778 1743 c7 -3 16 -2 19 1 4 3 -2 6 -13 5 -11 0 -14 -3 -6 -6z"/>
<path d="M880 1726 c0 -8 4 -17 9 -20 5 -4 7 3 4 14 -6 23 -13 26 -13 6z"/>
<path d="M2720 1735 c0 -5 5 -17 10 -25 5 -8 10 -10 10 -5 0 6 -5 17 -10 25
-5 8 -10 11 -10 5z"/>
<path d="M2760 1710 c0 -5 5 -10 10 -10 6 0 10 5 10 10 0 6 -4 10 -10 10 -5 0
-10 -4 -10 -10z"/>
<path d="M768 1687 c-3 -13 -1 -32 2 -43 5 -13 8 -5 8 24 1 47 -3 54 -10 19z"/>
<path d="M3860 1689 c0 -5 5 -7 10 -4 6 3 10 8 10 11 0 2 -4 4 -10 4 -5 0 -10
-5 -10 -11z"/>
<path d="M4027 1669 c6 -23 9 -24 16 -5 3 8 0 17 -7 19 -10 4 -12 -1 -9 -14z"/>
<path d="M860 1676 c0 -2 7 -9 15 -16 13 -11 14 -10 9 4 -5 14 -24 23 -24 12z"/>
<path d="M997 1650 c-19 -22 -22 -35 -7 -25 10 6 34 45 28 45 -2 0 -11 -9 -21
-20z"/>
<path d="M3875 1660 c-3 -5 -1 -10 4 -10 6 0 11 5 11 10 0 6 -2 10 -4 10 -3 0
-8 -4 -11 -10z"/>
<path d="M855 1640 c21 -24 26 -25 19 -6 -3 8 -13 17 -22 21 -13 5 -13 2 3
-15z"/>
<path d="M2630 1650 c0 -5 5 -10 11 -10 5 0 7 5 4 10 -3 6 -8 10 -11 10 -2 0
-4 -4 -4 -10z"/>
<path d="M720 1622 c0 -5 7 -17 16 -28 14 -17 15 -17 10 -1 -3 10 -6 23 -6 28
0 5 -4 9 -10 9 -5 0 -10 -4 -10 -8z"/>
<path d="M4740 1615 c0 -8 2 -15 4 -15 2 0 6 7 10 15 3 8 1 15 -4 15 -6 0 -10
-7 -10 -15z"/>
<path d="M3915 1610 c-3 -5 -1 -10 4 -10 6 0 11 5 11 10 0 6 -2 10 -4 10 -3 0
-8 -4 -11 -10z"/>
<path d="M986 1597 c3 -10 9 -15 12 -12 3 3 0 11 -7 18 -10 9 -11 8 -5 -6z"/>
<path d="M4686 1587 c3 -10 9 -15 12 -12 3 3 0 11 -7 18 -10 9 -11 8 -5 -6z"/>
<path d="M1156 1575 c-9 -26 -7 -32 5 -12 6 10 9 21 6 23 -2 3 -7 -2 -11 -11z"/>
<path d="M4761 1554 c0 -11 3 -14 6 -6 3 7 2 16 -1 19 -3 4 -6 -2 -5 -13z"/>
<path d="M520 1555 c0 -13 44 -87 47 -78 2 6 -6 27 -18 47 -19 33 -29 43 -29
31z"/>
<path d="M756 1547 c3 -10 9 -15 12 -12 3 3 0 11 -7 18 -10 9 -11 8 -5 -6z"/>
<path d="M3752 1520 c-24 -28 -29 -40 -20 -46 6 -4 14 -2 16 5 3 9 10 7 26 -6
l21 -18 -19 23 c-17 20 -18 24 -4 40 22 25 30 42 21 41 -4 0 -23 -18 -41 -39z"/>
<path d="M726 1537 c3 -10 9 -15 12 -12 3 3 0 11 -7 18 -10 9 -11 8 -5 -6z"/>
<path d="M2592 1534 c-12 -8 -27 -13 -33 -12 -7 2 -15 -5 -17 -14 -2 -12 1
-16 10 -13 8 3 18 -7 26 -25 8 -16 18 -30 24 -30 6 0 6 6 -2 15 -7 8 -9 15 -4
16 28 4 61 -5 78 -19 18 -17 18 -16 2 16 -9 18 -21 30 -26 27 -6 -4 -10 1 -10
10 0 9 -6 23 -14 30 -11 12 -17 12 -34 -1z"/>
<path d="M4121 1541 c-9 -6 -10 -11 -2 -15 6 -4 11 -13 11 -19 0 -7 -4 -6 -10
3 -9 13 -11 13 -19 0 -12 -18 -5 -30 18 -30 26 0 44 25 36 50 -7 22 -13 24
-34 11z"/>
<path d="M4700 1543 c0 -6 9 -21 21 -34 l20 -24 -17 30 c-24 39 -24 40 -24 28z"/>
<path d="M4801 1533 c0 -6 -4 -20 -7 -30 -5 -14 -4 -15 5 -7 7 7 11 20 8 30
-3 11 -5 14 -6 7z"/>
<path d="M750 1501 c0 -24 0 -24 -15 -5 -16 21 -20 8 -5 -16 8 -13 11 -13 24
0 11 10 12 20 6 30 -8 12 -10 10 -10 -9z"/>
<path d="M777 1500 c-3 -12 -2 -34 3 -50 8 -29 -3 -43 -14 -17 -3 6 -5 4 -3
-7 1 -10 13 -23 26 -27 20 -8 22 -7 16 8 -3 10 -9 32 -12 48 -4 23 -2 27 6 15
15 -21 14 -7 -3 24 -13 25 -14 26 -19 6z"/>
<path d="M820 1516 c0 -2 8 -10 18 -17 15 -13 16 -12 3 4 -13 16 -21 21 -21
13z"/>
<path d="M677 1489 c4 -13 8 -18 11 -10 2 7 -1 18 -6 23 -8 8 -9 4 -5 -13z"/>
<path d="M3665 1500 c-3 -6 1 -7 9 -4 18 7 21 14 7 14 -6 0 -13 -4 -16 -10z"/>
<path d="M3950 1494 c0 -8 5 -12 10 -9 6 4 8 11 5 16 -9 14 -15 11 -15 -7z"/>
<path d="M4650 1499 c0 -3 11 -20 25 -39 14 -19 25 -30 25 -24 -1 10 -50 73
-50 63z"/>
<path d="M1090 1479 c11 -8 12 -12 3 -16 -7 -2 -13 -9 -13 -14 0 -14 18 -2 29
19 8 14 5 18 -12 19 -18 2 -19 0 -7 -8z"/>
<path d="M4063 1478 c-22 -37 2 -67 28 -35 17 21 10 47 -12 47 -4 0 -11 -6
-16 -12z m27 -2 c0 -3 -4 -8 -10 -11 -5 -3 -10 -1 -10 4 0 6 5 11 10 11 6 0
10 -2 10 -4z"/>
<path d="M4690 1481 c0 -6 4 -13 10 -16 6 -3 7 1 4 9 -7 18 -14 21 -14 7z"/>
<path d="M2230 1470 c0 -5 5 -10 10 -10 6 0 10 5 10 10 0 6 -4 10 -10 10 -5 0
-10 -4 -10 -10z"/>
<path d="M5886 1461 c-16 -17 -16 -19 0 -25 9 -4 19 -4 22 -1 3 3 0 5 -8 5
-10 0 -10 3 0 15 19 23 6 28 -14 6z"/>
<path d="M677 1449 c14 -16 23 -43 27 -79 7 -77 8 -80 19 -80 5 0 6 8 2 18 -4
9 -9 26 -12 37 -4 18 -3 18 7 3 6 -10 16 -18 22 -18 6 0 2 10 -10 23 -13 14
-22 36 -22 54 0 23 -7 35 -27 48 l-28 18 22 -24z"/>
<path d="M4811 1453 c-7 -8 -11 -16 -8 -19 2 -2 10 2 17 11 17 20 9 27 -9 8z"/>
<path d="M731 1444 c0 -11 3 -14 6 -6 3 7 2 16 -1 19 -3 4 -6 -2 -5 -13z"/>
<path d="M1044 1449 c-4 -8 -3 -9 4 -5 7 4 12 2 12 -3 0 -6 -4 -11 -10 -11 -5
0 -10 -4 -10 -8 0 -5 7 -9 15 -9 8 0 15 8 15 18 0 22 -16 33 -26 18z"/>
<path d="M4645 1426 c14 -19 34 -37 43 -41 9 -3 -1 12 -23 34 -48 50 -54 52
-20 7z"/>
<path d="M570 1438 c0 -9 5 -20 10 -23 13 -8 13 5 0 25 -8 13 -10 13 -10 -2z"/>
<path d="M3895 1440 c3 -5 8 -10 11 -10 2 0 4 5 4 10 0 6 -5 10 -11 10 -5 0
-7 -4 -4 -10z"/>
<path d="M4186 1431 c-3 -5 1 -11 9 -15 8 -3 15 -1 15 4 0 13 -18 22 -24 11z"/>
<path d="M4560 1420 c6 -11 12 -20 14 -20 2 0 2 9 -1 20 -3 11 -9 20 -15 20
-5 0 -4 -9 2 -20z"/>
<path d="M1018 1425 c-3 -3 0 -23 5 -45 10 -35 9 -40 -14 -59 l-24 -20 23 6
c26 6 68 78 52 88 -6 3 -15 3 -22 -1 -7 -4 -8 -3 -4 4 4 7 2 12 -4 12 -6 0 -8
5 -5 10 7 11 2 14 -7 5z"/>
<path d="M4807 1399 c4 -13 8 -18 11 -10 2 7 -1 18 -6 23 -8 8 -9 4 -5 -13z"/>
<path d="M2500 1406 c0 -2 7 -9 15 -16 13 -11 14 -10 9 4 -5 14 -24 23 -24 12z"/>
<path d="M3911 1396 c-8 -10 -5 -12 12 -10 12 1 25 3 30 3 4 1 7 5 7 9 0 13
-38 12 -49 -2z"/>
<path d="M4315 1384 c-28 -23 -29 -24 -7 -24 12 0 22 6 22 14 0 8 8 16 18 18
9 2 12 6 7 10 -6 3 -24 -5 -40 -18z"/>
<path d="M597 1379 c4 -13 8 -18 11 -10 2 7 -1 18 -6 23 -8 8 -9 4 -5 -13z"/>
<path d="M4377 1376 c-5 -13 -1 -34 12 -60 11 -23 23 -50 26 -60 3 -10 8 -17
11 -14 2 3 -4 30 -15 59 -11 30 -21 63 -23 74 -4 20 -4 20 -11 1z"/>
<path d="M977 1340 c-15 -16 -24 -30 -21 -30 4 0 3 -6 -2 -13 -5 -7 1 -1 14
13 23 25 46 60 39 60 -2 0 -16 -13 -30 -30z"/>
<path d="M4790 1355 c-11 -13 -10 -14 5 -9 12 5 16 4 11 -4 -3 -6 -2 -13 4
-17 12 -7 13 15 1 33 -6 10 -10 10 -21 -3z"/>
<path d="M2412 1345 c-11 -13 -9 -17 13 -25 34 -13 35 -13 29 4 -3 8 -12 12
-20 9 -10 -4 -12 0 -8 11 8 20 3 20 -14 1z"/>
<path d="M605 1340 c3 -5 8 -10 11 -10 2 0 4 5 4 10 0 6 -5 10 -11 10 -5 0 -7
-4 -4 -10z"/>
<path d="M5927 1343 c-10 -9 -9 -23 2 -23 5 0 11 7 15 15 5 15 -5 20 -17 8z"/>
<path d="M2340 1330 c0 -5 6 -10 14 -10 8 0 18 5 21 10 3 6 -3 10 -14 10 -12
0 -21 -4 -21 -10z"/>
<path d="M4516 1305 c4 -8 8 -15 10 -15 2 0 4 7 4 15 0 8 -4 15 -10 15 -5 0
-7 -7 -4 -15z"/>
<path d="M420 1304 c0 -17 55 -74 72 -74 7 0 -2 12 -19 26 -18 14 -37 33 -43
42 -5 9 -10 12 -10 6z"/>
<path d="M560 1304 c0 -5 7 -18 15 -28 8 -11 15 -16 15 -10 0 5 -7 18 -15 28
-8 11 -15 16 -15 10z"/>
<path d="M2360 1290 c0 -13 5 -18 15 -14 8 4 15 12 15 20 0 8 -7 14 -15 14 -8
0 -15 -9 -15 -20z"/>
<path d="M4676 1297 c3 -10 9 -15 12 -12 3 3 0 11 -7 18 -10 9 -11 8 -5 -6z"/>
<path d="M4312 1293 c-18 -7 -37 -44 -20 -41 18 4 40 27 36 37 -2 4 -9 6 -16
4z"/>
<path d="M2430 1280 c0 -5 5 -10 10 -10 6 0 10 5 10 10 0 6 -4 10 -10 10 -5 0
-10 -4 -10 -10z"/>
<path d="M4516 1267 c10 -14 22 -27 27 -27 15 0 6 16 -20 34 l-27 20 20 -27z"/>
<path d="M4859 1270 c-1 -5 -2 -14 -3 -19 0 -5 -4 -13 -8 -17 -5 -4 -8 -12 -8
-18 0 -6 5 -3 11 7 6 9 13 16 17 14 4 -2 18 7 31 20 13 13 19 23 13 23 -6 0
-14 -4 -17 -10 -3 -5 -11 -10 -16 -10 -6 0 -7 5 -4 10 3 6 1 10 -4 10 -6 0
-12 -4 -12 -10z"/>
<path d="M4644 1255 c4 -11 9 -24 10 -30 5 -26 50 -99 53 -88 3 7 0 20 -5 29
-5 9 -7 37 -5 63 3 31 1 42 -5 32 -5 -7 -7 -21 -5 -31 3 -10 0 -21 -6 -24 -9
-6 -14 8 -13 34 0 3 -7 12 -16 20 -14 13 -15 12 -8 -5z"/>
<path d="M5520 1243 c0 -7 6 -13 14 -13 8 0 16 6 19 13 3 8 -3 13 -14 13 -11
0 -19 -6 -19 -13z"/>
<path d="M4809 1223 c-13 -16 -12 -17 4 -4 9 7 17 15 17 17 0 8 -8 3 -21 -13z"/>
<path d="M4852 1199 c-7 -11 -10 -24 -7 -29 3 -5 -3 -14 -14 -19 -10 -6 -21
-18 -25 -26 -11 -30 47 24 61 55 14 34 3 48 -15 19z"/>
<path d="M2103 1202 c-8 -5 -8 -12 3 -26 17 -24 23 -19 15 11 -4 14 -10 20
-18 15z"/>
<path d="M4317 1189 c-4 -16 -3 -18 9 -8 7 6 11 15 8 20 -8 13 -11 11 -17 -12z"/>
<path d="M885 1170 c-3 -5 -1 -10 4 -10 6 0 11 5 11 10 0 6 -2 10 -4 10 -3 0
-8 -4 -11 -10z"/>
<path d="M4795 1160 c-10 -11 -16 -22 -14 -24 2 -2 12 7 22 20 22 29 17 32 -8
4z"/>
<path d="M2050 1146 c0 -9 5 -16 10 -16 6 0 10 4 10 9 0 6 -4 13 -10 16 -5 3
-10 -1 -10 -9z"/>
<path d="M4882 1148 c-7 -7 -12 -18 -12 -26 0 -7 -4 -10 -10 -7 -11 7 -64 -25
-55 -33 3 -3 -2 -16 -11 -30 -8 -13 -13 -26 -11 -29 3 -2 15 14 28 36 12 23
26 41 31 41 11 0 10 -18 -2 -25 -5 -3 -15 -16 -20 -28 -7 -14 1 -9 20 13 16
19 30 37 30 41 0 3 10 11 23 17 12 6 16 11 8 11 -11 1 -11 4 -1 16 15 18 -1
20 -18 3z"/>
<path d="M4410 1121 c5 -11 15 -23 21 -27 6 -3 3 5 -6 20 -20 30 -30 35 -15 7z"/>
<path d="M775 1060 c-3 -5 -1 -10 4 -10 6 0 11 5 11 10 0 6 -2 10 -4 10 -3 0
-8 -4 -11 -10z"/>
</g>
</svg>
